<?xml version="1.0" encoding="utf-8"?>
<!-- Generator: Adobe Illustrator 16.0.0, SVG Export Plug-In . SVG Version: 6.00 Build 0)  -->
<!DOCTYPE svg PUBLIC "-//W3C//DTD SVG 1.1//EN" "http://www.w3.org/Graphics/SVG/1.1/DTD/svg11.dtd">
<svg version="1.1" id="Capa_1" xmlns="http://www.w3.org/2000/svg" xmlns:xlink="http://www.w3.org/1999/xlink" x="0px" y="0px"
	 width="32px" height="32px" viewBox="0 0 32 32" enable-background="new 0 0 32 32" xml:space="preserve">
<path fill="#A4FFBE" d="M27.5,15c0,3.72-2.58,7.72-5.52,10.39C19.91,27.28,17.65,28.5,16,28.5c-1.65,0-3.91-1.22-5.98-3.11
	C7.08,22.72,4.5,18.72,4.5,15c0-3.84,1.88-6.88,4.78-8.67C11.17,5.15,13.49,4.5,16,4.5s4.83,0.65,6.72,1.83
	C25.62,8.12,27.5,11.16,27.5,15z"/>
<path fill="none" stroke="#4D5152" stroke-miterlimit="10" d="M27.5,15c0-6.352-5.148-10.5-11.5-10.5C9.648,4.5,4.5,8.648,4.5,15
	c0,6.352,7.5,13.5,11.5,13.5S27.5,21.352,27.5,15z"/>
<path fill="#AAAAAA" d="M12.898,14.107c-1.678-1.678-4.269-2.121-5.593-0.799c-1.324,1.323-0.968,3.824,0.8,5.593
	c1.859,1.858,4.268,2.121,5.591,0.797C15.019,18.375,14.697,15.906,12.898,14.107z"/>
<path fill="#AAAAAA" d="M19.113,14.107c1.678-1.678,4.268-2.121,5.592-0.799c1.324,1.323,0.969,3.824-0.799,5.593
	c-1.859,1.858-4.269,2.121-5.592,0.797C16.992,18.375,17.313,15.906,19.113,14.107z"/>
<path opacity="0.4" fill="#4D5152" d="M12.898,14.107c-1.678-1.678-4.269-2.121-5.593-0.799c-1.324,1.323-0.968,3.824,0.8,5.593
	c1.859,1.858,4.268,2.121,5.591,0.797C15.019,18.375,14.697,15.906,12.898,14.107z"/>
<path opacity="0.4" fill="#4D5152" d="M19.113,14.107c1.678-1.678,4.268-2.121,5.592-0.799c1.324,1.323,0.969,3.824-0.799,5.593
	c-1.859,1.858-4.269,2.121-5.592,0.797C16.992,18.375,17.313,15.906,19.113,14.107z"/>
<path fill="none" stroke="#4D5152" stroke-miterlimit="10" d="M12.898,14.107c-1.678-1.678-4.269-2.121-5.593-0.799
	c-1.324,1.323-0.968,3.824,0.8,5.593c1.859,1.858,4.268,2.121,5.591,0.797C15.019,18.375,14.697,15.906,12.898,14.107z"/>
<path fill="none" stroke="#4D5152" stroke-miterlimit="10" d="M19.113,14.107c1.678-1.678,4.268-2.121,5.592-0.799
	c1.324,1.323,0.969,3.824-0.799,5.593c-1.859,1.858-4.269,2.121-5.592,0.797C16.992,18.375,17.313,15.906,19.113,14.107z"/>
<path fill="none" stroke="#4D5152" stroke-linecap="round" stroke-linejoin="round" stroke-miterlimit="10" d="M12.5,22.5
	c0,0,0.783,1,3.5,1c2.608,0,3.5-1,3.5-1"/>
</svg>
