<?xml version="1.0" encoding="utf-8"?>
<!-- Generator: Adobe Illustrator 16.0.0, SVG Export Plug-In . SVG Version: 6.00 Build 0)  -->
<!DOCTYPE svg PUBLIC "-//W3C//DTD SVG 1.1//EN" "http://www.w3.org/Graphics/SVG/1.1/DTD/svg11.dtd">
<svg version="1.1" id="Capa_1" xmlns="http://www.w3.org/2000/svg" xmlns:xlink="http://www.w3.org/1999/xlink" x="0px" y="0px"
	 width="32px" height="32px" viewBox="0 0 32 32" enable-background="new 0 0 32 32" xml:space="preserve">
<polygon fill="#A4FFBE" points="18.5,9.5 18.5,6.5 22.5,6.5 22.5,2.5 26.5,2.5 26.5,6.5 22.5,6.5 22.5,9.5 26.5,9.5 26.5,19.5 
	30.5,19.5 30.5,23.5 26.5,23.5 26.5,19.5 22.5,19.5 22.5,22.5 19.5,22.5 19.5,25.5 23.5,25.5 23.5,29.5 19.5,29.5 19.5,25.5 
	12.5,25.5 12.5,29.5 8.5,29.5 8.5,25.5 12.5,25.5 12.5,22.5 9.5,22.5 9.5,19.5 5.5,19.5 5.5,23.5 1.5,23.5 1.5,19.5 5.5,19.5 
	5.5,9.5 9.5,9.5 9.5,6.5 5.5,6.5 5.5,2.5 9.5,2.5 9.5,6.5 13.5,6.5 13.5,9.5 "/>
<rect x="8.5" y="12.5" fill="#75EA9C" width="5" height="4"/>
<rect x="18.5" y="12.5" fill="#75EA9C" width="5" height="4"/>
<polygon fill="none" stroke="#4D5152" stroke-miterlimit="10" points="18.5,9.5 18.5,6.5 22.5,6.5 22.5,2.5 26.5,2.5 26.5,6.5 
	22.5,6.5 22.5,9.5 26.5,9.5 26.5,19.5 30.5,19.5 30.5,23.5 26.5,23.5 26.5,19.5 22.5,19.5 22.5,22.5 19.5,22.5 19.5,25.5 23.5,25.5 
	23.5,29.5 19.5,29.5 19.5,25.5 12.5,25.5 12.5,29.5 8.5,29.5 8.5,25.5 12.5,25.5 12.5,22.5 9.5,22.5 9.5,19.5 5.5,19.5 5.5,23.5 
	1.5,23.5 1.5,19.5 5.5,19.5 5.5,9.5 9.5,9.5 9.5,6.5 5.5,6.5 5.5,2.5 9.5,2.5 9.5,6.5 13.5,6.5 13.5,9.5 "/>
<rect x="8.5" y="12.5" fill="none" stroke="#4D5152" stroke-miterlimit="10" width="5" height="4"/>
<rect x="18.5" y="12.5" fill="none" stroke="#4D5152" stroke-miterlimit="10" width="5" height="4"/>
</svg>
