<?xml version="1.0" encoding="utf-8"?>
<!-- Generator: Adobe Illustrator 16.0.0, SVG Export Plug-In . SVG Version: 6.00 Build 0)  -->
<!DOCTYPE svg PUBLIC "-//W3C//DTD SVG 1.1//EN" "http://www.w3.org/Graphics/SVG/1.1/DTD/svg11.dtd">
<svg version="1.1" id="Capa_1" xmlns="http://www.w3.org/2000/svg" xmlns:xlink="http://www.w3.org/1999/xlink" x="0px" y="0px"
	 width="32px" height="32px" viewBox="0 0 32 32" enable-background="new 0 0 32 32" xml:space="preserve">
<path fill="#FF80ED" d="M27.5,15c0,3.72-2.58,7.72-5.52,10.39C19.91,27.28,17.65,28.5,16,28.5s-3.91-1.22-5.98-3.11
	C7.08,22.72,4.5,18.72,4.5,15c0-3.84,1.88-6.88,4.779-8.67C11.17,5.15,13.49,4.5,16,4.5s4.83,0.65,6.72,1.83
	C25.62,8.12,27.5,11.16,27.5,15z"/>
<path fill="none" stroke="#4D5152" stroke-miterlimit="10" d="M27.5,15c0-6.352-5.148-10.5-11.5-10.5S4.5,8.648,4.5,15
	c0,6.352,7.5,13.5,11.5,13.5S27.5,21.352,27.5,15z"/>
<path fill="none" stroke="#4D5152" stroke-linecap="round" stroke-linejoin="round" stroke-miterlimit="10" d="M18.5,20.5
	c0,0,0.004,2-2.5,2c-2.5,0-2.5-2-2.5-2"/>
<path fill="#EF6565" d="M14.5,14.5c0,0,0,3-4,5c-4-2-4-5-4-5s0-2,2-2s2,2,2,2s0-2,2-2S14.5,14.5,14.5,14.5z"/>
<path fill="#EF6565" d="M25.5,14.5c0,0,0,3-4,5c-4-2-4-5-4-5s0-2,2-2s2,2,2,2s0-2,2-2S25.5,14.5,25.5,14.5z"/>
<path fill="none" stroke="#4D5152" stroke-linecap="round" stroke-linejoin="round" stroke-miterlimit="10" d="M14.5,14.5
	c0,0,0,3-4,5c-4-2-4-5-4-5s0-2,2-2s2,2,2,2s0-2,2-2S14.5,14.5,14.5,14.5z"/>
<path fill="none" stroke="#4D5152" stroke-linecap="round" stroke-linejoin="round" stroke-miterlimit="10" d="M25.5,14.5
	c0,0,0,3-4,5c-4-2-4-5-4-5s0-2,2-2s2,2,2,2s0-2,2-2S25.5,14.5,25.5,14.5z"/>
</svg>
