<?xml version="1.0" encoding="utf-8"?>
<!-- Generator: Adobe Illustrator 16.0.0, SVG Export Plug-In . SVG Version: 6.00 Build 0)  -->
<!DOCTYPE svg PUBLIC "-//W3C//DTD SVG 1.1//EN" "http://www.w3.org/Graphics/SVG/1.1/DTD/svg11.dtd">
<svg version="1.1" id="Capa_1" xmlns="http://www.w3.org/2000/svg" xmlns:xlink="http://www.w3.org/1999/xlink" x="0px" y="0px"
	 width="32px" height="32px" viewBox="0 0 32 32" enable-background="new 0 0 32 32" xml:space="preserve">
<path fill="#FF61E1" d="M29.259,20.295l-0.616,0.932l-13.423,7.75c-4.546,2.625-10.352,1.07-12.977-3.477S1.173,15.148,5.719,12.523
	l18.423-10.75c0,0,0.866-0.5,1.366,0.366c0.5,0.866-0.366,1.366-0.366,1.366l-11.062,6.5c0,0-0.865,0.5-0.365,1.366
	c0.5,0.866,1.365,0.366,1.365,0.366l7.33-4.5c0,0,0.867-0.5,1.367,0.366c0.5,0.866-0.367,1.366-0.367,1.366l-5.598,3.5
	c0,0-0.865,0.5-0.365,1.366c0.5,0.866,1.365,0.366,1.365,0.366l7.33-4.5c0,0,0.866-0.5,1.366,0.366
	c0.5,0.866-0.366,1.366-0.366,1.366l-4.732,3c0,0-0.865,0.5-0.365,1.366c0.5,0.866,1.365,0.366,1.365,0.366s0.867-0.5,1.367,0.366
	s-0.367,1.366-0.367,1.366l-3.463,1.999c0,0-0.867,0.5-0.367,1.367c0.5,0.865,1.367,0.365,1.367,0.365l5.195-2.999
	c0,0,0.866-0.5,1.366,0.365l0.25,0.433"/>
<circle fill="#BFBFBF" cx="10.47" cy="20.75" r="7.5"/>
<circle fill="none" stroke="#4D5152" stroke-miterlimit="10" cx="10.47" cy="20.75" r="7.5"/>
<path fill="none" stroke="#4D5152" stroke-linecap="round" stroke-linejoin="round" stroke-miterlimit="10" d="M28.759,19.428
	c-0.734-1.271-2.049-0.548-2.049-0.548l-4.763,2.749c0,0-0.867,0.5-1.367-0.365c-0.5-0.867,0.367-1.367,0.367-1.367l3.463-1.999
	c0,0,0.867-0.5,0.367-1.366s-1.367-0.366-1.367-0.366s-0.865,0.5-1.365-0.366c-0.5-0.866,0.365-1.366,0.365-1.366l4.732-3
	c0,0,0.866-0.5,0.366-1.366c-0.5-0.866-1.366-0.366-1.366-0.366l-7.33,4.5c0,0-0.865,0.5-1.365-0.366
	c-0.5-0.866,0.365-1.366,0.365-1.366l5.598-3.5c0,0,0.867-0.5,0.367-1.366c-0.5-0.866-1.367-0.366-1.367-0.366l-7.33,4.5
	c0,0-0.865,0.5-1.365-0.366c-0.5-0.866,0.365-1.366,0.365-1.366l11.062-6.5c0,0,0.866-0.5,0.366-1.366
	c-0.5-0.866-1.366-0.366-1.366-0.366L5.719,12.523C1.174,15.147-0.381,20.955,2.243,25.5s8.432,6.102,12.977,3.477l5.629-3.25
	l7.361-4.25C28.21,21.477,29.509,20.727,28.759,19.428z"/>
<path fill="#AAAAAA" d="M9.153,17.469C8.6,16.512,7.377,16.185,6.42,16.737l0,0c-0.957,0.552-1.284,1.776-0.731,2.732l0,0
	c0.553,0.957,1.774,1.285,2.731,0.732l0,0C9.377,19.648,9.706,18.426,9.153,17.469L9.153,17.469z"/>
<path fill="#AAAAAA" d="M7.622,21.816C7.208,21.1,6.29,20.854,5.573,21.268l0,0C4.856,21.682,4.61,22.6,5.024,23.316l0,0
	c0.414,0.719,1.332,0.964,2.049,0.55l0,0C7.79,23.452,8.036,22.535,7.622,21.816L7.622,21.816z"/>
<path fill="#AAAAAA" d="M12.287,24.896c-0.275-0.477-0.888-0.642-1.366-0.365l0,0c-0.479,0.276-0.641,0.889-0.365,1.365l0,0
	c0.275,0.479,0.887,0.643,1.365,0.367l0,0C12.399,25.986,12.563,25.376,12.287,24.896L12.287,24.896z"/>
</svg>
