<?xml version="1.0" encoding="utf-8"?>
<!-- Generator: Adobe Illustrator 16.0.0, SVG Export Plug-In . SVG Version: 6.00 Build 0)  -->
<!DOCTYPE svg PUBLIC "-//W3C//DTD SVG 1.1//EN" "http://www.w3.org/Graphics/SVG/1.1/DTD/svg11.dtd">
<svg version="1.1" id="Capa_1" xmlns="http://www.w3.org/2000/svg" xmlns:xlink="http://www.w3.org/1999/xlink" x="0px" y="0px"
	 width="32px" height="32px" viewBox="0 0 32 32" enable-background="new 0 0 32 32" xml:space="preserve">
<path fill="#AAAAAA" d="M25.501,22.5l2,4c0,0,2,3-10,3c-12,0-11-3-11-3l2-4"/>
<path fill="#BFBFBF" d="M27.501,13.5c0-6.351-4.148-11-10.5-11l0,0c-6.352,0-10.5,4.649-10.5,11v3c0,6.352,4.149,9,10.5,9l0,0
	c6.352,0,10.5-2.648,10.5-9V13.5z"/>
<path fill="#ACF0F2" d="M15.5,21.5c0,0-7,0-7-7c0-6,5-6,5-6h7c0,0,5,0,5,6c0,7-7,7-7,7H15.5z"/>
<line fill="none" stroke="#FFFFFF" stroke-linecap="round" stroke-miterlimit="10" x1="13.5" y1="9" x2="13.5" y2="14.5"/>
<line fill="none" stroke="#FFFFFF" stroke-linecap="round" stroke-miterlimit="10" x1="11.5" y1="9" x2="11.5" y2="17.5"/>
<path fill="#FF61E1" d="M7,9.5H5.5c0,0-2,0-2,2s0,6,0,6s0,2,2,2H7V9.5z"/>
<path fill="none" stroke="#4D5152" stroke-miterlimit="10" d="M4.5,19.5c0,0,0,3,3,5"/>
<path fill="none" stroke="#4D5152" stroke-miterlimit="10" d="M27.501,13.5c0-6.351-4.148-11-10.5-11l0,0
	c-6.352,0-10.5,4.649-10.5,11v3c0,6.352,4.149,9,10.5,9l0,0c6.352,0,10.5-2.648,10.5-9V13.5z"/>
<path fill="none" stroke="#4D5152" stroke-miterlimit="10" d="M8.5,22.5l-2,4c0,0-1,3,11,3"/>
<path fill="none" stroke="#4D5152" stroke-miterlimit="10" d="M25.501,22.5l2,4c0,0,2,3-10,3"/>
<path fill="none" stroke="#4D5152" stroke-miterlimit="10" d="M15.5,21.5c0,0-7,0-7-7c0-6,5-6,5-6h7c0,0,5,0,5,6c0,7-7,7-7,7H15.5z"
	/>
<path fill="none" stroke="#4D5152" stroke-miterlimit="10" d="M4.5,19.5c0,0,0,3,3,5"/>
<line fill="none" stroke="#4D5152" stroke-miterlimit="10" x1="5.664" y1="22.336" x2="7.211" y2="20.789"/>
<path fill="none" stroke="#4D5152" stroke-miterlimit="10" d="M6.5,19.5h-1c-2,0-2-2-2-2s0-4,0-6s2-2,2-2H7"/>
</svg>
