<?xml version="1.0" encoding="utf-8"?>
<!-- Generator: Adobe Illustrator 16.0.0, SVG Export Plug-In . SVG Version: 6.00 Build 0)  -->
<!DOCTYPE svg PUBLIC "-//W3C//DTD SVG 1.1//EN" "http://www.w3.org/Graphics/SVG/1.1/DTD/svg11.dtd">
<svg version="1.1" id="Capa_1" xmlns="http://www.w3.org/2000/svg" xmlns:xlink="http://www.w3.org/1999/xlink" x="0px" y="0px"
	 width="32px" height="32px" viewBox="0 0 32 32" enable-background="new 0 0 32 32" xml:space="preserve">
<path fill="#FFFFFF" d="M29.5,16c0,3.22-1.12,6.17-3,8.49c-2.48,3.06-6.26,5.01-10.5,5.01s-8.02-1.95-10.5-5.01
	c-1.88-2.32-3-5.271-3-8.49c0-4.8,2.5-9.02,6.28-11.41C10.87,3.27,13.34,2.5,16,2.5c2.78,0,5.36,0.84,7.51,2.27v0.01
	C27.12,7.2,29.5,11.32,29.5,16z"/>
<path opacity="0.5" fill="#BFBFBF" d="M26.5,20v4.49c-2.48,3.06-6.26,5.01-10.5,5.01s-8.02-1.95-10.5-5.01V20
	c0-5.8,4.7-10.5,10.5-10.5S26.5,14.2,26.5,20z"/>
<path fill="#EF6565" d="M21.629,23.25c-1.625,2.814-5.031,3.955-7.973,2.81c-0.302-0.116-0.612-0.261-0.906-0.431
	c-0.294-0.17-0.574-0.366-0.826-0.569c-0.885-0.707-1.547-1.62-1.948-2.626c-0.727-1.781-0.645-3.883,0.395-5.684
	s2.818-2.922,4.725-3.184c1.071-0.155,2.193-0.039,3.248,0.373c0.303,0.117,0.612,0.262,0.906,0.432
	c0.295,0.17,0.574,0.365,0.826,0.568C22.538,16.916,23.254,20.436,21.629,23.25z"/>
<path opacity="0.5" fill="#BFBFBF" d="M23.51,4.77v0.01C22.18,5.59,19.85,6.5,16,6.5c-3.58,0-5.85-0.79-7.22-1.55V4.59
	C10.87,3.27,13.34,2.5,16,2.5C18.78,2.5,21.36,3.34,23.51,4.77z"/>
<circle fill="none" stroke="#4D5152" stroke-miterlimit="10" cx="16" cy="16" r="13.5"/>
<path fill="none" stroke="#4D5152" stroke-miterlimit="10" d="M5.5,24.253V20c0-5.796,4.699-10.5,10.5-10.5S26.5,14.204,26.5,20
	v4.253"/>
<path fill="#F27C7C" d="M18.344,13.939l-6.419,11.12c-0.885-0.707-1.547-1.62-1.948-2.626l5.12-8.867
	C16.167,13.411,17.289,13.527,18.344,13.939z"/>
<path fill="#F27C7C" d="M20.076,14.939l-6.42,11.12c-0.302-0.116-0.612-0.261-0.906-0.431l6.5-11.258
	C19.545,14.541,19.824,14.736,20.076,14.939z"/>
<circle fill="none" stroke="#4D5152" stroke-miterlimit="10" cx="16" cy="20" r="6.5"/>
<path fill="none" stroke="#4D5152" stroke-miterlimit="10" d="M8.779,4.947C10.145,5.714,12.418,6.5,16,6.5
	c3.846,0,6.182-0.905,7.507-1.722"/>
</svg>
