<svg id="Ebene_1" data-name="Ebene 1" xmlns="http://www.w3.org/2000/svg" viewBox="0 0 1193.3 514.4"><defs><style>.cls-1{fill:#fff;}</style></defs><title>BAG_Logo_weiß_1200</title><path class="cls-1" d="M87.3,483.6a27.6,27.6,0,0,1-2.9,12.7,26.2,26.2,0,0,1-7.9,9.3,36.6,36.6,0,0,1-12.7,6.2,69.9,69.9,0,0,1-17.6,1.8H3.6V415.4h38a134.6,134.6,0,0,1,17.3.8,35.4,35.4,0,0,1,10.9,3.5,19.3,19.3,0,0,1,8.3,7.6,23.1,23.1,0,0,1-1,23.5,24.6,24.6,0,0,1-10.6,8.5v0.5q9.6,1.9,15.2,7.9T87.3,483.6ZM55,443.2a10.9,10.9,0,0,0-1.2-4.9,7.6,7.6,0,0,0-4.3-3.6,20.6,20.6,0,0,0-6.9-1.2H28.7v20.8h3.9l10.2-.2a18.2,18.2,0,0,0,6.6-1.3,8.1,8.1,0,0,0,4.5-3.9A13.9,13.9,0,0,0,55,443.2Zm6.1,40q0-4.7-1.8-7.2t-6.1-3.8a31.8,31.8,0,0,0-8.1-.9H28.7v24.5H45.7a22.2,22.2,0,0,0,8.5-1.7,10.4,10.4,0,0,0,5.4-4.4A13.1,13.1,0,0,0,61.1,483.2Z" transform="translate(-3.6 -1.3)"/><path class="cls-1" d="M200.3,513.7H169.5l-26.6-36H131.2v36H106.1V415.4h42.3a96.9,96.9,0,0,1,14.9,1,32.1,32.1,0,0,1,11.7,4.3,25.5,25.5,0,0,1,8.8,8.5q3.3,5.3,3.3,13.2,0,10.9-5,17.7a38,38,0,0,1-14.4,11.4ZM161,445.5a12.5,12.5,0,0,0-1.5-6.3,10.1,10.1,0,0,0-5.2-4.2,19.2,19.2,0,0,0-6-1.3l-8-.2h-9.1v26.5H139a71.2,71.2,0,0,0,10.1-.6,14.4,14.4,0,0,0,6.8-2.7,13.1,13.1,0,0,0,3.8-4.5A15.2,15.2,0,0,0,161,445.5Z" transform="translate(-3.6 -1.3)"/><path class="cls-1" d="M306.5,464.6q0,23.5-13.4,37.3t-37.1,13.8q-23.6,0-37-13.8t-13.4-37.3q0-23.7,13.4-37.5t37-13.8q23.5,0,37,13.8T306.5,464.6Zm-33.5,24.9a29.4,29.4,0,0,0,5.5-10.6,51.7,51.7,0,0,0,1.8-14.3,48.6,48.6,0,0,0-2-15,29.2,29.2,0,0,0-5.3-10,19.9,19.9,0,0,0-7.7-5.7,24.3,24.3,0,0,0-18.1-.1,21.1,21.1,0,0,0-7.8,5.7,27.9,27.9,0,0,0-5.4,10.2,49.7,49.7,0,0,0-2.1,15.1,48.8,48.8,0,0,0,2,14.9,29.6,29.6,0,0,0,5.3,10.1,20.2,20.2,0,0,0,7.7,5.7,23.7,23.7,0,0,0,9.3,1.8,23.4,23.4,0,0,0,9.3-1.9A20.3,20.3,0,0,0,273.1,489.4Z" transform="translate(-3.6 -1.3)"/><path class="cls-1" d="M370,515.6a60.6,60.6,0,0,1-20.1-3.2,41.8,41.8,0,0,1-26.2-25.6,61.9,61.9,0,0,1-3.6-22.1,61.2,61.2,0,0,1,3.5-21.2,45.3,45.3,0,0,1,10.1-16.3A42.9,42.9,0,0,1,349.5,417a57.8,57.8,0,0,1,20.6-3.6,81.6,81.6,0,0,1,11.1.7,77.1,77.1,0,0,1,9.2,1.8,65.3,65.3,0,0,1,8,2.8l6.3,2.9v23.8h-2.9l-4.6-3.7a61.8,61.8,0,0,0-6.3-4.3,43.9,43.9,0,0,0-7.8-3.5,27.5,27.5,0,0,0-9-1.4,30.4,30.4,0,0,0-10.1,1.7,24.6,24.6,0,0,0-8.9,5.6,27.3,27.3,0,0,0-6.3,9.9,41.7,41.7,0,0,0-2.4,15q0,9.2,2.6,15.4a26.8,26.8,0,0,0,6.5,9.7,23.9,23.9,0,0,0,8.9,5.2,32.2,32.2,0,0,0,9.7,1.5,30.8,30.8,0,0,0,9.1-1.4,35.2,35.2,0,0,0,8.3-3.7,54.6,54.6,0,0,0,6-4.1l4.5-3.7h2.6v23.5l-7,3.1a57.8,57.8,0,0,1-7,2.5,84.8,84.8,0,0,1-9,2.1A71.5,71.5,0,0,1,370,515.6Z" transform="translate(-3.6 -1.3)"/><path class="cls-1" d="M514.5,513.7h-31l-29.2-39.3-5.9,7.3v32.1H423.2V415.4h25.2v44.5l35-44.5h29.2l-38.2,45.5Z" transform="translate(-3.6 -1.3)"/><path class="cls-1" d="M620.1,513.7H594.9V470.4H557.6v43.3H532.4V415.4h25.2v36h37.3v-36h25.2v98.3Z" transform="translate(-3.6 -1.3)"/><path class="cls-1" d="M740.9,513.7H714.8L708,493.8H671.8L665,513.7H639.5l36.1-98.3h29Zm-38.9-37.9-12-35.2-12,35.2h24.1Z" transform="translate(-3.6 -1.3)"/><path class="cls-1" d="M840.6,478.1q0,18.2-11,27.9t-32.5,9.7q-21.5,0-32.5-9.7t-11-27.8V415.4h25.4v61.3q0,10.2,4.3,15.2t13.9,5q9.5,0,13.8-4.8t4.4-15.4V415.4h25.4v62.7Z" transform="translate(-3.6 -1.3)"/><path class="cls-1" d="M942.6,482.8q0,14.5-12.3,23.6T897,515.4a92.5,92.5,0,0,1-21.2-2.1,108.3,108.3,0,0,1-16.9-5.4V484.3h2.8a58.2,58.2,0,0,0,17.5,9.6,56.6,56.6,0,0,0,18.6,3.4,60.1,60.1,0,0,0,6-.4,24,24,0,0,0,6.1-1.3,15.1,15.1,0,0,0,4.8-3,6.9,6.9,0,0,0,1.9-5.3,7.1,7.1,0,0,0-2.7-5.6,19,19,0,0,0-8-3.6q-5.5-1.3-11.7-2.5a88.4,88.4,0,0,1-11.5-2.9q-12.4-4-17.8-10.9t-5.4-17.1q0-13.7,12.3-22.4t31.5-8.7a97.6,97.6,0,0,1,19.1,1.9,89.4,89.4,0,0,1,16.3,4.7v22.6H936a52.1,52.1,0,0,0-14.5-8,49.7,49.7,0,0,0-17.5-3.2,46.2,46.2,0,0,0-6.3.4,24.8,24.8,0,0,0-6,1.6,11.6,11.6,0,0,0-4.4,3,6.6,6.6,0,0,0-1.8,4.6,6.9,6.9,0,0,0,3,6q3,2.1,11.2,3.8l10.4,2.2a109.6,109.6,0,0,1,10.7,2.9q11.2,3.7,16.6,10.1T942.6,482.8Z" transform="translate(-3.6 -1.3)"/><path class="cls-1" d="M1096.3,513.7h-26.1l-6.8-19.9h-36.2l-6.8,19.9H994.9l36.1-98.3h29Zm-38.9-37.9-12-35.2-12,35.2h24.1Z" transform="translate(-3.6 -1.3)"/><path class="cls-1" d="M1196.9,508a132.2,132.2,0,0,1-17.4,5.1,94.5,94.5,0,0,1-21.6,2.5q-25,0-39.1-13.6t-14.1-37.6q0-22.9,14.3-36.9t39.8-14a93.9,93.9,0,0,1,18.4,1.7,82.1,82.1,0,0,1,19.5,7v23h-2.8l-5.4-3.9a64.9,64.9,0,0,0-6.8-4.3,44.4,44.4,0,0,0-8.9-3.6,37.6,37.6,0,0,0-10.8-1.5,35.4,35.4,0,0,0-12.2,2,28.1,28.1,0,0,0-9.8,6.1,27.7,27.7,0,0,0-6.5,10.1,38.4,38.4,0,0,0-2.4,14.1q0,16.3,8.6,24.9t25.4,8.6h3.2l3.2-.2V478.1h-19.5V459.5h45.2V508Z" transform="translate(-3.6 -1.3)"/><polygon class="cls-1" points="774.7 356 418.7 356 418.7 0 596.7 0 596.7 81.3 500.1 81.3 500.1 274.7 693.3 274.7 693.3 178 774.7 178 774.7 356"/><polygon class="cls-1" points="693.3 148 693.3 81.4 627 81.4 627 0 774.7 0 774.7 148 693.3 148"/></svg>