<svg id="Ebene_1" data-name="Ebene 1" xmlns="http://www.w3.org/2000/svg" viewBox="0 0 1192 513.39"><defs><style>.cls-1{fill:#a6a6a6;}.cls-2{fill:#b81f40;}</style></defs><title>BAG_Logo_RGB</title><path d="M87.85,483.27A27.57,27.57,0,0,1,85,496a26.17,26.17,0,0,1-7.84,9.3,36.57,36.57,0,0,1-12.7,6.2,69.81,69.81,0,0,1-17.56,1.85H4.22V415.18H42.16a134.46,134.46,0,0,1,17.3.79,35.38,35.38,0,0,1,10.86,3.49,19.28,19.28,0,0,1,8.31,7.62,23.07,23.07,0,0,1-1,23.47A24.55,24.55,0,0,1,67,459v0.53q9.58,1.91,15.2,7.91T87.85,483.27Zm-32.3-40.34a10.87,10.87,0,0,0-1.21-4.88,7.57,7.57,0,0,0-4.3-3.62,20.6,20.6,0,0,0-6.86-1.15q-4.1-.1-11.52-0.1H29.29v20.77h3.94q6,0,10.18-.2A18.16,18.16,0,0,0,50,452.42a8.13,8.13,0,0,0,4.46-3.92A13.84,13.84,0,0,0,55.55,442.93Zm6.11,39.95q0-4.68-1.8-7.22t-6.13-3.79a31.75,31.75,0,0,0-8.12-.93q-5.18-.06-10.81-0.06h-5.5v24.46h1.83q10.62,0,15.2-.07a22.15,22.15,0,0,0,8.45-1.71,10.35,10.35,0,0,0,5.41-4.38A13.08,13.08,0,0,0,61.66,482.88Z" transform="translate(-4.22 -1.99)"/><path d="M200.76,513.33H170l-26.59-36H131.7v36H106.62V415.18H148.9a96.78,96.78,0,0,1,14.9,1,32.07,32.07,0,0,1,11.69,4.29,25.49,25.49,0,0,1,8.76,8.53q3.25,5.24,3.25,13.15,0,10.88-5,17.73a38,38,0,0,1-14.35,11.41Zm-39.32-68.09a12.53,12.53,0,0,0-1.51-6.33,10.14,10.14,0,0,0-5.19-4.16,19.2,19.2,0,0,0-6-1.29q-3.41-.23-7.94-0.23H131.7v26.44h7.75a71.08,71.08,0,0,0,10.11-.6,14.38,14.38,0,0,0,6.83-2.7,13.14,13.14,0,0,0,3.84-4.51A15.16,15.16,0,0,0,161.44,445.24Z" transform="translate(-4.22 -1.99)"/><path d="M306.85,464.29q0,23.47-13.39,37.28t-37,13.81q-23.57,0-37-13.81t-13.39-37.28q0-23.67,13.39-37.41t37-13.74q23.5,0,37,13.74T306.85,464.29Zm-33.41,24.85a29.38,29.38,0,0,0,5.45-10.58,51.61,51.61,0,0,0,1.77-14.33,48.57,48.57,0,0,0-2-15,29.19,29.19,0,0,0-5.32-10,19.93,19.93,0,0,0-7.71-5.74,24.31,24.31,0,0,0-18.12-.06,21.07,21.07,0,0,0-7.78,5.66,27.9,27.9,0,0,0-5.35,10.19,49.63,49.63,0,0,0-2.07,15.06,48.72,48.72,0,0,0,2,14.93,29.59,29.59,0,0,0,5.29,10.06,20.21,20.21,0,0,0,7.68,5.73,23.7,23.7,0,0,0,9.26,1.85,23.37,23.37,0,0,0,9.26-1.88A20.32,20.32,0,0,0,273.43,489.14Z" transform="translate(-4.22 -1.99)"/><path d="M370.26,515.24A60.54,60.54,0,0,1,350.14,512,41.78,41.78,0,0,1,324,486.44a61.83,61.83,0,0,1-3.64-22.09,61.09,61.09,0,0,1,3.48-21.16A45.27,45.27,0,0,1,334,426.91a42.9,42.9,0,0,1,15.79-10.08,57.77,57.77,0,0,1,20.58-3.56,81.47,81.47,0,0,1,11.13.69,77,77,0,0,1,9.16,1.81,65.19,65.19,0,0,1,8,2.8q3.58,1.55,6.27,2.87v23.8H402q-1.84-1.57-4.63-3.74a61.69,61.69,0,0,0-6.34-4.27,43.86,43.86,0,0,0-7.81-3.54,27.43,27.43,0,0,0-9-1.45,30.38,30.38,0,0,0-10.11,1.68,24.6,24.6,0,0,0-8.86,5.56,27.31,27.31,0,0,0-6.27,9.94,41.62,41.62,0,0,0-2.39,15q0,9.21,2.59,15.39a26.79,26.79,0,0,0,6.53,9.74,23.86,23.86,0,0,0,8.93,5.16,32.21,32.21,0,0,0,9.72,1.55,30.75,30.75,0,0,0,9.09-1.38,35.19,35.19,0,0,0,8.3-3.74,54.51,54.51,0,0,0,6-4.07q2.76-2.16,4.53-3.74h2.63V506.8q-3.68,1.65-7,3.1a57.7,57.7,0,0,1-7,2.51,84.69,84.69,0,0,1-9,2.11A71.44,71.44,0,0,1,370.26,515.24Z" transform="translate(-4.22 -1.99)"/><path d="M514.62,513.33h-31L454.42,474l-5.85,7.26v32H423.37V415.18h25.21v44.47l34.92-44.47h29.22L474.51,460.6Z" transform="translate(-4.22 -1.99)"/><path d="M620,513.33H594.83V470.09H557.61v43.24H532.4V415.18h25.21V451.1h37.22V415.18H620v98.15Z" transform="translate(-4.22 -1.99)"/><path d="M740.69,513.33h-26l-6.81-19.84H671.68l-6.81,19.84h-25.4l36.11-98.15h29Zm-38.9-37.84-12-35.17-12,35.17h24.05Z" transform="translate(-4.22 -1.99)"/><path d="M840.34,477.8q0,18.19-11,27.89t-32.49,9.69q-21.47,0-32.47-9.69t-11-27.82V415.18H778.7v61.24q0,10.22,4.26,15.23t13.85,5q9.45,0,13.82-4.81T815,476.42V415.18h25.34V477.8Z" transform="translate(-4.22 -1.99)"/><path d="M942.16,482.48q0,14.5-12.24,23.57t-33.25,9.07A92.41,92.41,0,0,1,875.49,513a108.2,108.2,0,0,1-16.91-5.44V484h2.76a58.17,58.17,0,0,0,17.49,9.62A56.52,56.52,0,0,0,897.45,497a60,60,0,0,0,6-.4,24,24,0,0,0,6.11-1.32,15,15,0,0,0,4.76-3,6.93,6.93,0,0,0,1.87-5.27,7.14,7.14,0,0,0-2.73-5.57,18.93,18.93,0,0,0-8-3.59q-5.51-1.32-11.65-2.47a88.34,88.34,0,0,1-11.52-2.93q-12.34-4-17.76-10.91t-5.41-17.1q0-13.72,12.24-22.38t31.48-8.67A97.46,97.46,0,0,1,922,415.27,89.34,89.34,0,0,1,938.29,420V442.6h-2.69a52,52,0,0,0-14.47-7.95,49.69,49.69,0,0,0-17.49-3.2,46.11,46.11,0,0,0-6.27.43,24.75,24.75,0,0,0-6,1.61,11.59,11.59,0,0,0-4.4,3,6.62,6.62,0,0,0-1.84,4.58,6.84,6.84,0,0,0,3,6q3,2.08,11.16,3.79L909.57,453a109.5,109.5,0,0,1,10.67,2.9q11.23,3.69,16.57,10.06T942.16,482.48Z" transform="translate(-4.22 -1.99)"/><path d="M1095.71,513.33h-26l-6.81-19.84h-36.17l-6.81,19.84h-25.4l36.11-98.15h29Zm-38.9-37.84-12-35.17-12,35.17h24.05Z" transform="translate(-4.22 -1.99)"/><path d="M1196.21,507.73a132.09,132.09,0,0,1-17.4,5.1,94.37,94.37,0,0,1-21.6,2.54q-24.94,0-39.06-13.62T1104,464.16q0-22.88,14.24-36.88t39.71-14a93.82,93.82,0,0,1,18.38,1.75,82,82,0,0,1,19.43,7v23H1193c-1.22-.93-3-2.23-5.38-3.92a64.87,64.87,0,0,0-6.83-4.32,44.33,44.33,0,0,0-8.9-3.62,37.56,37.56,0,0,0-10.8-1.52,35.36,35.36,0,0,0-12.14,2,28.08,28.08,0,0,0-9.78,6.06,27.68,27.68,0,0,0-6.53,10.05,38.34,38.34,0,0,0-2.39,14.08q0,16.28,8.6,24.92t25.41,8.63q1.44,0,3.18-.06t3.18-.2V477.8h-19.49V459.28h45.1v48.46Z" transform="translate(-4.22 -1.99)"/><polygon class="cls-1" points="773.92 356.31 417.62 356.31 417.62 0 595.77 0 595.77 81.4 499.11 81.4 499.11 274.99 692.43 274.99 692.43 178.19 773.94 178.19 773.92 356.31"/><polygon class="cls-2" points="692.42 148.1 692.42 81.42 626.05 81.42 626.05 0.03 773.94 0.03 773.94 148.1 692.42 148.1"/></svg>