<?xml version="1.0" encoding="utf-8"?>
<!-- Generator: Adobe Illustrator 16.0.0, SVG Export Plug-In . SVG Version: 6.00 Build 0)  -->
<!DOCTYPE svg PUBLIC "-//W3C//DTD SVG 1.1//EN" "http://www.w3.org/Graphics/SVG/1.1/DTD/svg11.dtd">
<svg version="1.1" id="Capa_1" xmlns="http://www.w3.org/2000/svg" xmlns:xlink="http://www.w3.org/1999/xlink" x="0px" y="0px"
	 width="32px" height="32px" viewBox="0 0 32 32" enable-background="new 0 0 32 32" xml:space="preserve">
<path fill="#FFFFFF" d="M27.5,15c0,2-0.51,3.87-1.4,5.5c-1.949,3.58-5.739,6-10.1,6c-4.36,0-8.15-2.42-10.1-6
	C5.01,18.87,4.5,17,4.5,15c0-0.17,0-0.34,0.01-0.5c0.14-3.17,1.55-6,3.75-8c2.04-1.86,4.75-3,7.74-3s5.7,1.14,7.74,3
	c2.2,2,3.609,4.83,3.75,8C27.5,14.66,27.5,14.83,27.5,15z"/>
<path fill="#AAAAAA" d="M27.5,14c0,2-0.51,4.87-1.4,6.5H5.9C5.01,18.87,4.5,16,4.5,14c0-0.17,0-0.34,0.01-0.5h22.98
	C27.5,13.66,27.5,13.83,27.5,14z"/>
<path fill="#AAAAAA" d="M23.74,6.5H8.26c2.04-1.86,4.75-3,7.74-3S21.7,4.64,23.74,6.5z"/>
<path fill="#FFFFFF" d="M12.448,20.5l0.052-4.899c0,0-0.052-4.101,3.448-4.101s3.5,4,3.5,4v5"/>
<circle fill="none" stroke="#4D5152" stroke-miterlimit="10" cx="16" cy="15" r="11.5"/>
<line fill="none" stroke="#4D5152" stroke-miterlimit="10" x1="6" y1="20.5" x2="26" y2="20.5"/>
<line fill="none" stroke="#4D5152" stroke-miterlimit="10" x1="4.5" y1="13.5" x2="27.5" y2="13.5"/>
<line fill="none" stroke="#4D5152" stroke-miterlimit="10" x1="8.156" y1="6.5" x2="23.74" y2="6.5"/>
<line fill="none" stroke="#4D5152" stroke-miterlimit="10" x1="6.5" y1="8.5" x2="25.5" y2="8.5"/>
<path fill="none" stroke="#4D5152" stroke-miterlimit="10" d="M12.5,20.5v-5c0,0,0-4,3.5-4s3.5,4,3.5,4v5"/>
<path fill="#FFFFFF" d="M6.5,24.5c0,0,0-1,1-1h4c0,0,1,0,1,1l0,0c0,0,0,1-1,1s-5,0-5,0V24.5z"/>
<rect x="6.5" y="25.5" fill="#AAAAAA" width="2" height="2"/>
<path fill="#ACF0F2" d="M8.5,27.5c0,0,2,0,2,1c0,0,0,1-1,1s-2,0-2,0s-1,0-2,0s-1-1-1-1c0-1,2-1,2-1"/>
<path fill="none" stroke="#4D5152" stroke-miterlimit="10" d="M6.5,24.5c0,0,0-1,1-1h4c0,0,1,0,1,1l0,0c0,0,0,1-1,1s-5,0-5,0V24.5z"
	/>
<rect x="6.5" y="25.5" fill="none" stroke="#4D5152" stroke-miterlimit="10" width="2" height="2"/>
<path fill="none" stroke="#4D5152" stroke-miterlimit="10" d="M8.5,27.5c0,0,2,0,2,1c0,0,0,1-1,1s-2,0-2,0s-1,0-2,0s-1-1-1-1
	c0-1,2-1,2-1"/>
<path fill="#FFFFFF" d="M25.5,24.5c0,0,0-1-1-1h-4c0,0-1,0-1,1l0,0c0,0,0,1,1,1s5,0,5,0V24.5z"/>
<rect x="23.5" y="25.5" fill="#AAAAAA" width="2" height="2"/>
<path fill="#ACF0F2" d="M23.5,27.5c0,0-2,0-2,1c0,0,0,1,1,1s2,0,2,0s1,0,2,0s1-1,1-1c0-1-2-1-2-1"/>
<path fill="none" stroke="#4D5152" stroke-miterlimit="10" d="M25.5,24.5c0,0,0-1-1-1h-4c0,0-1,0-1,1l0,0c0,0,0,1,1,1s5,0,5,0V24.5z
	"/>
<rect x="23.5" y="25.5" fill="none" stroke="#4D5152" stroke-miterlimit="10" width="2" height="2"/>
<path fill="none" stroke="#4D5152" stroke-miterlimit="10" d="M23.5,27.5c0,0-2,0-2,1c0,0,0,1,1,1s2,0,2,0s1,0,2,0s1-1,1-1
	c0-1-2-1-2-1"/>
<circle fill="#67DDE0" cx="9" cy="16.997" r="1.5"/>
<circle fill="#67DDE0" cx="23" cy="16.997" r="1.5"/>
<circle fill="none" stroke="#4D5152" stroke-miterlimit="10" cx="9" cy="16.997" r="1.5"/>
<circle fill="none" stroke="#4D5152" stroke-miterlimit="10" cx="23" cy="16.997" r="1.5"/>
</svg>
