<?xml version="1.0" encoding="utf-8"?>
<!-- Generator: Adobe Illustrator 16.0.0, SVG Export Plug-In . SVG Version: 6.00 Build 0)  -->
<!DOCTYPE svg PUBLIC "-//W3C//DTD SVG 1.1//EN" "http://www.w3.org/Graphics/SVG/1.1/DTD/svg11.dtd">
<svg version="1.1" id="Capa_1" xmlns="http://www.w3.org/2000/svg" xmlns:xlink="http://www.w3.org/1999/xlink" x="0px" y="0px"
	 width="32px" height="32px" viewBox="0 0 32 32" enable-background="new 0 0 32 32" xml:space="preserve">
<path fill="#FFFFFF" d="M25.5,13.5v13c0,0-3,3-9.5,3s-9.5-3-9.5-3v-13c0,0,0-6.95,5.5-9.25c1.1-0.47,2.42-0.75,4-0.75
	s2.9,0.28,4,0.75C25.5,6.55,25.5,13.5,25.5,13.5z"/>
<path fill="#AAAAAA" d="M20,4.25V14.5h-8V4.25c1.1-0.47,2.42-0.75,4-0.75S18.9,3.78,20,4.25z"/>
<path fill="#AAAAAA" d="M25.5,23.5v3c0,0-3,3-9.5,3s-9.5-3-9.5-3v-3c0,0,3,3,9.5,3S25.5,23.5,25.5,23.5z"/>
<line fill="none" stroke="#4D5152" stroke-miterlimit="10" x1="6.5" y1="14.5" x2="25.5" y2="14.5"/>
<line fill="none" stroke="#4D5152" stroke-miterlimit="10" x1="6.5" y1="16.5" x2="25.5" y2="16.5"/>
<circle fill="#67DDE0" cx="16" cy="9" r="2"/>
<path fill="none" stroke="#4D5152" stroke-miterlimit="10" d="M25.5,23.5c0,0-3,3-9.5,3s-9.5-3-9.5-3"/>
<path fill="#FFFFFF" d="M11.5,29v-3.5c0,0,0-5,4.5-5s4.5,5,4.5,5V29"/>
<line fill="none" stroke="#4D5152" stroke-miterlimit="10" x1="6.5" y1="16.5" x2="25.5" y2="16.5"/>
<circle fill="none" stroke="#4D5152" stroke-miterlimit="10" cx="16" cy="9" r="2"/>
<path fill="none" stroke="#4D5152" stroke-miterlimit="10" d="M11.5,29v-3.5c0,0,0-5,4.5-5s4.5,5,4.5,5V29"/>
<path fill="none" stroke="#4D5152" stroke-miterlimit="10" d="M6.5,13.5c0,0,0-10,9.5-10s9.5,10,9.5,10v13c0,0-3,3-9.5,3
	s-9.5-3-9.5-3V13.5z"/>
<path fill="#FFFFFF" d="M12.5,14.5v-10c0,0,0-1-1-1s-1,1-1,1v10"/>
<path fill="#FFFFFF" d="M21.5,14.5v-10c0,0,0-1-1-1s-1,1-1,1v10"/>
<path fill="none" stroke="#4D5152" stroke-miterlimit="10" d="M12.5,14.5v-10c0,0,0-1-1-1s-1,1-1,1v10"/>
<path fill="none" stroke="#4D5152" stroke-miterlimit="10" d="M21.5,14.5v-10c0,0,0-1-1-1s-1,1-1,1v10"/>
<line fill="none" stroke="#4D5152" stroke-miterlimit="10" x1="6.5" y1="14.5" x2="25.5" y2="14.5"/>
</svg>
