<svg id="Ebene_1" data-name="Ebene 1" xmlns="http://www.w3.org/2000/svg" viewBox="0 0 560 560"><defs><style>.cls-1{fill:#166c8c;}.cls-2{opacity:0.7;}.cls-3{fill:#71c4e7;}.cls-4,.cls-6{opacity:0.6;}.cls-5{fill:#8cdeff;}.cls-6{fill:#005674;}</style></defs><title>Planet</title><circle class="cls-1" cx="276.9" cy="287.5" r="259.5"/><g class="cls-2"><path class="cls-3" d="M59.1,146.4c26,13.6,124.3,17.5,147.1,13.2,18.2-3.4,38.9-9.7,47.8-20.2,21-24.9-25.8-30.4-40.4-29.2-18.5,1.5-41,8.3-59.7,8.5-15.8.2-28.1-10.6-36-24.5l-4.5-8.2A260.8,260.8,0,0,0,59.1,146.4Z"/><path class="cls-3" d="M401.3,302.2c-10.6,2.7-22.8-.7-32.1-3.1-4.6-1.2-10.8-3.3-15.5-1.3-9.5,4-14.6,21.2-9,29.9s13.9,13.1,23.2,15.7c36.9,10.4,65,2.5,93.5-22.4,20.5-17.9,43.4-45.5,71.2-51.7l3-.5A259,259,0,0,0,440.7,86.3c-17,2.4-31.9,9.9-40.3,25.9-10.7,20.4-18.6,36.7-38.2,50.3-53.3,37-129.2,37.7-182.1,64.9-72.4,37.2,132.1,6.3,183.7-.3,19.3-2.5,60.3-6.7,72.6,14.4C449.9,264.5,431.6,294.4,401.3,302.2Z"/><path class="cls-3" d="M447.8,442.4c-21.8-9.2-43.2-19.4-66-26.1-29.8-8.7-77.5-24.2-107-8.7-10.7,5.6-17.7,17-13.2,29.6,5.4,15.1,18.9,13.9,31.9,14.8,18.1,1.3,33.7,3.4,45.7,17.4,6.2,7.2,1.7,24,7.4,31.5,8.3,11.1,26.2,17.4,40.2,21.6a260.4,260.4,0,0,0,91.4-71.4A134,134,0,0,1,447.8,442.4Z"/><path class="cls-3" d="M82.8,442.1c28.3-3,52.7,6.3,81.9-1.7,12-3.3,28.9-11.8,10.9-20.6-10.1-4.9-20.6-8.6-31-13-14.5-6.2-39.4-13.2-43-30.6-0.5-2.3,2.7-8.1,7.9-10.7,25.1-12.6,43.8-7,70.9-9,13.1-1,32.9-3.3,44.2-6.7,6.2-1.8,21.7-5.3,10.5-12.1-30.3-18.3-76-10.1-107.9-25.9-40-19.9-67.1-49-109.7-33.5q-0.2,4.5-.2,9.1A258.2,258.2,0,0,0,71.4,445.8,28.5,28.5,0,0,1,82.8,442.1Z"/></g><g class="cls-4"><path class="cls-5" d="M330.2,104.7l-0.9,3.4c-0.6,2.2-1.6,5.4-3.1,9.4a100.5,100.5,0,0,1-6.8,13.9,104.8,104.8,0,0,1-11.9,16.3,121.5,121.5,0,0,1-17.6,16.2c-3.4,2.6-7,5-10.8,7.4s-7.8,4.6-11.9,6.7A205.1,205.1,0,0,1,241,189.2a277.8,277.8,0,0,1-28.2,8.1c-9.6,2.2-19.3,3.9-28.8,5.3s-19,2.2-28.2,2.9-18,.9-26.5,1-16.4-.1-23.7-0.4-14-.8-20-1.3-11.1-1.1-15.3-1.6l-9.8-1.3-3.5-.5,3.5,0.2,9.9,0.6,15.4,0.7,19.9,0.3c7.3,0,15.2-.1,23.5-0.4s17.1-.9,26.2-1.6,18.4-1.9,27.8-3.2,19-3.1,28.4-5.3a272.9,272.9,0,0,0,27.8-7.8c4.5-1.5,8.9-3.2,13.2-4.9s8.5-3.6,12.6-5.6,7.9-4.1,11.7-6.3,7.3-4.5,10.7-6.9,6.5-4.9,9.5-7.4,5.7-5.1,8.2-7.7a112.4,112.4,0,0,0,12.4-15.4,110.5,110.5,0,0,0,7.5-13.3c1.8-3.9,3-7,3.8-9.1Z"/><path class="cls-5" d="M392.7,260.2l-2.2-.2-2.6-.2-3.6-.3H371.8l-3,.3-3.2.3-3.3.5a121.8,121.8,0,0,0-14.3,3.3c-5,1.6-10.2,3.4-15.5,5.6s-10.7,4.7-16.1,7.2-11,5.2-16.7,7.7a153.8,153.8,0,0,1-17.4,6.4,81,81,0,0,1-17.8,3.4,42,42,0,0,1-4.4.2,36.5,36.5,0,0,1-4.3-.1l-4.2-.3-4.1-.6-2-.3-1.9-.5-3.8-.9-6.9-2.3-6.1-2.7-5.3-2.8c-1.7-.8-3.2-1.8-4.5-2.7l-3.8-2.4-5.1-3.7-1.8-1.3,7.3,4.3,3.9,2.1c1.4,0.7,2.9,1.6,4.7,2.3l5.4,2.4,6.1,2.3,6.8,1.9,3.7,0.7,1.9,0.4,1.9,0.2,3.9,0.4h4c1.4,0.1,2.7,0,4.1-.1a39.2,39.2,0,0,0,4.2-.3,84.1,84.1,0,0,0,17-3.5,151.4,151.4,0,0,0,17-6.4c5.6-2.4,11.2-5,16.7-7.5s11-4.9,16.5-7a149.8,149.8,0,0,1,16-5.2,105.5,105.5,0,0,1,14.8-2.7l3.4-.4h14.6l4.5,0.5a33.7,33.7,0,0,1,3.6.6l2.6,0.5Z"/><path class="cls-5" d="M479.2,355.8l-0.4,1.1c-0.3.7-.7,1.8-1.3,3.1a50.5,50.5,0,0,1-6.5,10.9,45,45,0,0,1-15.3,12.6,52.5,52.5,0,0,1-11.5,4.2,73.6,73.6,0,0,1-13.5,1.9,131.8,131.8,0,0,1-30.4-2.5,322.8,322.8,0,0,1-32.9-8.2c-11.3-3.3-22.8-7.1-34.5-10.5-5.9-1.7-11.8-3.3-17.8-4.6a90.6,90.6,0,0,0-9-1.4H297a86.3,86.3,0,0,0-18.1,2.5,64.6,64.6,0,0,0-8.6,2.8c-1.4.5-2.7,1.2-4.1,1.8s-2.7,1.4-3.9,2.2a56,56,0,0,0-7.3,5.1,62.1,62.1,0,0,0-6.4,6,76.2,76.2,0,0,0-5.6,6.7c-1.8,2.3-3.4,4.7-4.9,7.2-6.2,9.8-11,20-16,29.5s-10,18.5-15.9,25.9a77.5,77.5,0,0,1-9.3,9.9,63.5,63.5,0,0,1-9.9,7.2,66.5,66.5,0,0,1-9.7,4.7l-4.5,1.5-2.1.6-2.1.5a82,82,0,0,1-12.6,1.9l-4.5.2,4.5-.4a91,91,0,0,0,12.4-2.4l2-.6,2.1-.7,4.4-1.6a65.2,65.2,0,0,0,9.3-4.9,69.7,69.7,0,0,0,18.2-17.3c5.6-7.4,10.3-16.3,15.1-25.9s9.4-20,15.7-30.1c1.6-2.5,3.2-5,5-7.5a79.8,79.8,0,0,1,5.8-7.1,65.9,65.9,0,0,1,6.7-6.5,59.7,59.7,0,0,1,7.7-5.5c1.3-.9,2.8-1.6,4.2-2.3s2.9-1.4,4.4-2a68.6,68.6,0,0,1,9.1-3,89.8,89.8,0,0,1,18.9-2.6h9.6a94.5,94.5,0,0,1,9.4,1.5c6.2,1.3,12.2,3,18.1,4.7,11.8,3.5,23.3,7.5,34.4,10.9s22,6.5,32.5,8.6a135.6,135.6,0,0,0,29.7,3.1c9.2-.2,17.7-1.9,24.5-5.2a43.9,43.9,0,0,0,15.3-11.7,53.4,53.4,0,0,0,6.9-10.5c0.7-1.3,1.1-2.3,1.4-3Z"/><path class="cls-5" d="M306.2,46.2l-1,1.2a39.9,39.9,0,0,1-2.8,3.2l-2.2,2.2-2.7,2.4-3.3,2.5-3.8,2.6a75.9,75.9,0,0,1-9.2,4.8,86.7,86.7,0,0,1-10.9,4l-2.9.8-3,.7-6.1,1.3c-4.1.8-8.3,1.3-12.6,1.7s-8.4.7-12.6,0.8l-12.1.2c-7.9,0-15.1-.3-21.4-0.5l-8.5-.3-6.6-.2h-5.8l1.5-.3,4.2-.9,6.5-1.1,8.5-1.1c6.3-.7,13.6-1.2,21.3-1.7l12-.8,12.3-1c4.1-.4,8.2-0.9,12.1-1.5s7.9-1.3,11.6-2.1l5.4-1.3,5.1-1.5a96.8,96.8,0,0,0,9.2-3.5l4-1.9L296,53l3-1.8,2.5-1.6c1.5-1,2.7-1.9,3.5-2.5Z"/></g><path class="cls-6" d="M334.3,540.5c-66,15.1-131.9,3.2-186.4-27.9,41.8-10.9,329.3-99.2,223.2-466.7C448.3,76.2,510,142.3,529.8,229.3c31.9,139.9-55.6,279.2-195.6,311.2"/></svg>