<svg id="Ebene_1" data-name="Ebene 1" xmlns="http://www.w3.org/2000/svg" viewBox="0 0 560 560"><defs><style>.cls-1{fill:#b81f40;}.cls-2{fill:none;}.cls-3{fill:#801529;}.cls-4{fill:#de7583;}.cls-5{fill:#801720;opacity:0.4;}</style></defs><title>Planet</title><circle class="cls-1" cx="284.5" cy="272.1" r="225.7"/><rect class="cls-2" x="7.2" y="50.2" width="551.6" height="450.18"/><path class="cls-3" d="M439.7,436c13.2-12.9,26-27.6,36-44.1,11-18.1-66.8-85-173-149.4s-201.2-102.1-212.2-84a225.3,225.3,0,0,0-23,51.4C21.6,165.7-1.3,128.6,10.1,109.7s55-15.7,115.4,4.6c55.4,18.6,125,51.7,197.1,95.4S456.1,300,498.2,340.5c45.9,44.2,69.1,81.3,57.7,100.2s-55.8,15.7-116.2-4.6"/><path class="cls-4" d="M450.6,424.9c8.9-10.1,17.9-21,25.1-32.9,11-18.1-66.9-85-173.1-149.4s-201.2-102.1-212.1-84a226.2,226.2,0,0,0-18,36.9C46.1,167.5,33.8,145.2,41,133.3c9-14.8,46.2-10.3,98.6,8.6,48,17.4,108.8,47.1,172.1,85.5S429.4,306,467,340.6c41,37.7,62.4,68.7,53.4,83.5-7.2,11.9-32.9,11.3-69.7.8h-0.2Z"/><rect class="cls-2" x="-76.7" y="81.3" width="701.4" height="430.81"/><rect class="cls-2" x="7.2" y="50.2" width="551.6" height="450.18"/><rect class="cls-2" x="7.2" y="50.2" width="551.6" height="450.18"/><path class="cls-3" d="M191.1,331.8a39.8,39.8,0,1,0-51.2,23.3,39.8,39.8,0,0,0,51.2-23.3"/><path class="cls-3" d="M120.4,234.3a10.9,10.9,0,1,0-14,6.4,10.9,10.9,0,0,0,14-6.4"/><path class="cls-3" d="M233.4,92.6a13.3,13.3,0,1,0-17.1,7.8,13.3,13.3,0,0,0,17.1-7.8"/><path class="cls-3" d="M424.2,147.4a30.7,30.7,0,1,0-39.5,18,30.7,30.7,0,0,0,39.5-18"/><path class="cls-3" d="M317.4,177.1a11,11,0,1,0-14.1,6.4,11,11,0,0,0,14.1-6.4"/><path class="cls-3" d="M471.2,267.1a7.8,7.8,0,1,0-10.1,4.6,7.8,7.8,0,0,0,10.1-4.6"/><path class="cls-3" d="M460.9,232a14.8,14.8,0,1,0-19.1,8.7,14.8,14.8,0,0,0,19.1-8.7"/><path class="cls-3" d="M341.5,303.8A20.7,20.7,0,1,0,314.8,316a20.7,20.7,0,0,0,26.7-12.2"/><path class="cls-3" d="M300.8,469.7a20.7,20.7,0,1,0-26.7,12.2,20.7,20.7,0,0,0,26.7-12.2"/><path class="cls-3" d="M320,422.8a9.6,9.6,0,1,0-12.4,5.7,9.6,9.6,0,0,0,12.4-5.7"/><path class="cls-3" d="M430.1,400.8a13.9,13.9,0,1,0-17.9,8.1,13.9,13.9,0,0,0,17.9-8.1"/><path class="cls-3" d="M273.3,337.9a13.3,13.3,0,1,0-17.1,7.8,13.3,13.3,0,0,0,17.1-7.8"/><path class="cls-3" d="M211,439.9a7.8,7.8,0,1,0-10.1,4.6,7.8,7.8,0,0,0,10.1-4.6"/><path class="cls-5" d="M335.9,491.8a225.3,225.3,0,0,1-162.4-23.1c36.3-9.8,285.8-88.4,191.2-407.4,67.4,25.9,121.5,83,139.3,158.6,28.7,121.5-46.6,243.3-168.2,271.9"/></svg>