<svg id="Ebene_1" data-name="Ebene 1" xmlns="http://www.w3.org/2000/svg" viewBox="0 0 560 560"><defs><style>.cls-1{fill:#e7795d;}.cls-2{fill:#c75e45;}.cls-3{fill:#b54e37;}.cls-4{fill:#9b3722;opacity:0.55;}</style></defs><title>3</title><path class="cls-1" d="M543.1,284.8c0,139-112.7,251.7-251.8,251.7S39.6,423.8,39.6,284.8,152.3,33.2,291.3,33.2,543.1,145.8,543.1,284.8Z"/><ellipse class="cls-2" cx="316.8" cy="93.7" rx="36.9" ry="17.2" transform="translate(-10.7 50.6) rotate(-9)"/><path class="cls-3" d="M480.1,118.3c-14.6-16.8-42-39.4-45.5-39.9-26.1-3.6-48,51.7-101,53.3-37.5,1.1-133.6-10.7-133.6,1.8s215.6,23.2,219.2,42.8-198.4-2.4-157.4,17.3,164.1,25.1,207.3,16,47.1-37.4,47.1-37.4S506.6,148.8,480.1,118.3Z"/><ellipse class="cls-3" cx="244.5" cy="244" rx="20.2" ry="52.9" transform="translate(-38.1 442.6) rotate(-80)"/><path class="cls-2" d="M353.7,399.5c65.7-46.3,100.7-56,166.5-94.2,7.4-4.3,15.8-7.6,22.9-11.2-0.6-25.9-2.7-63.2-15.5-95.8-12.8,23.9-51.2,47.4-89.5,63-40.9,16.6-63.8,14.7-103.1,38s-25.8,52.3-80.5,54.4c-75.3,2.9-139.4-91-208.1-11.6,3,11.9,8.8,31.6,15.3,45.6,8.5,18.3,14.7,30.3,25.8,44.8,84.5-51.3,129.1,11.4,57.5,57.2,20.8,15.4,41.7,23.4,55.5,29.9C265.7,463.3,276.8,453.8,353.7,399.5Z"/><path class="cls-3" d="M512.3,404.8c0.6,2.4-26.4,53.2-79.4,88.9S316.6,536.5,315.9,535c-9.5-19.3,19.5-63.3,72.4-99S507.7,386.3,512.3,404.8Z"/><path class="cls-4" d="M345.3,531.1c-64.5,14.7-128.9,3.1-182.1-27.3,40.8-10.7,321.7-96.9,218.1-456,75.5,29.7,135.7,94.2,155.1,179.2,31.2,136.7-54.3,272.8-191,304"/></svg>