<svg id="Ebene_1" data-name="Ebene 1" xmlns="http://www.w3.org/2000/svg" viewBox="0 0 560 560"><defs><style>.cls-1{fill:#6c558b;}.cls-2{fill:none;stroke:#6c558b;stroke-miterlimit:10;}.cls-3{fill:#d2ced9;}.cls-4{fill:#fff;}.cls-5{fill:#9482ab;}</style></defs><title>Planet</title><circle class="cls-1" cx="285.1" cy="285.5" r="260.7"/><path class="cls-1" d="M347.1,537.5c138.3-32.6,224-171.2,191.4-309.6S367.3,3.9,229,36.6,5,207.8,37.6,346.1s171.2,224,309.6,191.4"/><path class="cls-2" d="M342.7,533.3C480.2,500.9,565.4,363.1,533,225.6S362.8,2.9,225.3,35.3,2.6,205.5,35,343,205.2,565.7,342.7,533.3"/><path class="cls-3" d="M268.2,456.1q-7.4,5.2-14.7,9.8c-50.3-48.1-99.4-78.1-137.7-96.3a433.8,433.8,0,0,0-82.9-30q-2-9.3-3.4-18.6c21.7,4.8,54.3,14.3,92.9,32.6,58.3,27.7,136,76,215.4,182.3"/><path class="cls-3" d="M407.6,510h0l3.2-1.8,5.8-3.4L421,502l5.8-3.7,0.6-.4A804.4,804.4,0,0,0,333,396.8q-7.4,9.1-15.2,17.3c-66.4-59.7-131.4-96.7-182.3-119.2A594.5,594.5,0,0,0,28,258.7q1.2-11.6,3.3-23a616.1,616.1,0,0,1,112.4,37.5c77.1,34,188.8,99.9,283.6,224.6-4.7-6.1-13,8.3-19.9,12.1"/><path class="cls-3" d="M382.8,307a290.9,290.9,0,0,1-22.3,49.6c-65.9-60.2-130.6-97.3-181.1-119.7-61.9-27.5-112.3-38-136.8-41.7a258.4,258.4,0,0,1,24-48.5c30.1,5.7,76.5,17.6,131.4,41.8,81.1,35.7,195.3,105.9,298.3,240.7"/><path class="cls-3" d="M537.2,328h0m-0.3-.4h0m-0.3-.3h0m-0.3-.4v0m-0.3-.3v0m-0.3-.4v0m-0.3-.3v0m-0.3-.3-0.2-.2,0.2,0.2m-0.2-.3-1.3-1.6,1.3,1.6m-1.3-1.6-0.5-.7,0.5,0.7m-0.5-.7c-47.6-55-89.1-98.5-133-132.9q0.3,16.8-.8,32.6c-57.9-47.8-113.6-78.9-158.3-98.7-49.6-22-92-33.2-120-38.8A254.4,254.4,0,0,1,149.6,65,626.5,626.5,0,0,1,250.5,99.8c76.9,33.9,184.9,99.5,282.8,223.2"/><path class="cls-4" d="M534.6,226.5l-0.3-1.2,0.3,1.2m-0.3-1.4h0v-0.2l-1.1-4.5,1.2,4.9"/><path class="cls-3" d="M534.2,225h0m-9.8-31.8H524c-47-49.5-95-85.7-137.7-110.5q2.7,11.7,4.9,23.1a551.8,551.8,0,0,0-68-35.9c-45.7-20.1-84.1-29.4-107.2-33.5L225,34a260.1,260.1,0,0,1,33.9-5.6,532,532,0,0,1,70.6,25.3c53.5,23.5,125.1,65.3,194.7,138.5"/><path class="cls-5" d="M320,540.9a654.9,654.9,0,0,0-66.6-75c4.9-3.1,9.9-6.5,14.8-10a679,679,0,0,1,71,81.6Z"/><path class="cls-1" d="M407.5,509.9a780.7,780.7,0,0,0-89.7-95.8h0A780.6,780.6,0,0,1,407.5,509.9Z"/><path class="cls-5" d="M408.5,511.5c-29.4-37.1-60.8-70.4-90.8-97.4,5.2-5.5,11.1-11.8,16-17.9A756.1,756.1,0,0,1,429,499l-1.1.7Z"/><path class="cls-1" d="M462.1,469.9A776.5,776.5,0,0,0,360.6,356.7h0A776.2,776.2,0,0,1,462.1,469.9Z"/><path class="cls-5" d="M463.2,470.5c-12.9-21.4-68.5-82.7-102.6-113.8A290.9,290.9,0,0,0,382.8,307,834.9,834.9,0,0,1,497.6,430.4l-0.4.5A250,250,0,0,1,463.2,470.5Z"/><path class="cls-1" d="M529.5,360.8c-42.2-57.1-86.7-102.3-130.1-138.2h0c43.4,35.8,88,81.1,130.1,138.2m7.9-32.5-0.3-.4,0.3,0.4m-0.3-.4-0.2-.3,0.2,0.3m-0.3-.4-0.2-.2,0.2,0.2m-0.3-.4-0.2-.2,0.2,0.2m-0.3-.4v0m-0.3-.3v0m-0.3-.4v0m-0.3-.4v0m-0.3-.4h0m-1.3-1.7h0m-0.5-.7h0Z"/><path class="cls-5" d="M538.6,328.7v0.8c-0.5,4-5.2,23.7-7.5,30.2l-0.5,1.3A784.2,784.2,0,0,0,399.4,222.4q1.1-15.7.8-32.6a757.7,757.7,0,0,1,133,132.7Z"/><path class="cls-5" d="M534.3,225.3v0"/><path class="cls-5" d="M534.3,225.3V225h0v0.2m-0.1-.4v0"/><path class="cls-5" d="M535.6,225.9l1.2,4.9A621.6,621.6,0,0,0,391.3,105.7c-1.5-7.6-3.1-15.3-5-23.1,42.7,24.8,91.6,59.5,138.3,109.6l2.2,5.3c1.6,4.4,3.7,10.4,5.1,14.9Z"/></svg>