<svg id="Ebene_1" data-name="Ebene 1" xmlns="http://www.w3.org/2000/svg" viewBox="0 0 560 560"><defs><style>.cls-1,.cls-4{fill:#dfdedd;}.cls-2{fill:#156b81;}.cls-3,.cls-6,.cls-7{fill:#b8b6b5;}.cls-3,.cls-4,.cls-5{fill-rule:evenodd;}.cls-5{fill:#ddd;}.cls-7{opacity:0.4;}</style></defs><title>Planet</title><circle class="cls-1" cx="277.8" cy="282.5" r="259.4"/><circle class="cls-2" cx="91.5" cy="283.5" r="3.6"/><path class="cls-3" d="M39.5,320.5a44.7,44.7,0,1,1,44.7,44.7A44.7,44.7,0,0,1,39.5,320.5Z"/><path class="cls-3" d="M209.8,532.6a29.3,29.3,0,0,1-1.7-9.8c0.1-20.1,20.1-36.3,44.8-36.2s44.6,16.4,44.6,36.5a31.2,31.2,0,0,1-6.1,18.3l-11.3.2A260.5,260.5,0,0,1,209.8,532.6Z"/><path class="cls-3" d="M118.8,450.5c-10.8-8.7-13-23.9-4.9-33.9s23.4-11.1,34.1-2.4,13,23.9,4.9,33.9S129.6,459.2,118.8,450.5Z"/><path class="cls-4" d="M35.3,330.8a38.5,38.5,0,1,1,38.5,38.5A38.5,38.5,0,0,1,35.3,330.8Z"/><path class="cls-3" d="M221.7,426.3c0-17.1,15-31,33.4-31s33.4,13.9,33.4,31-15,31-33.4,31S221.7,443.4,221.7,426.3Z"/><path class="cls-4" d="M235.6,435.7c0-13.7,12-24.8,26.7-24.8s26.7,11.1,26.7,24.8-12,24.8-26.7,24.8S235.6,449.4,235.6,435.7Z"/><path class="cls-5" d="M108.4,457.1c-10.8-8.7-13-23.9-4.9-33.9s23.4-11.1,34.1-2.4,13,23.9,4.9,33.9S119.1,465.8,108.4,457.1Z"/><path class="cls-3" d="M138.1,235.1c0-19.1,17.6-34.6,39.3-34.6s39.3,15.5,39.3,34.6-17.6,34.6-39.3,34.6S138.1,254.2,138.1,235.1Z"/><path class="cls-4" d="M143.5,247.2c0-17.8,16.4-32.2,36.6-32.2s36.6,14.4,36.6,32.2-16.4,32.2-36.6,32.2S143.5,265,143.5,247.2Z"/><path class="cls-3" d="M173.3,307.4a23.5,23.5,0,1,1,23.5,23.5A23.5,23.5,0,0,1,173.3,307.4Z"/><circle class="cls-1" cx="188.1" cy="314.2" r="14.8"/><path class="cls-3" d="M341.3,465.9a19.2,19.2,0,1,1,22.4,15.3A19.2,19.2,0,0,1,341.3,465.9Z"/><path class="cls-5" d="M345.5,467.8a12.1,12.1,0,1,1,14.1,9.6A12.1,12.1,0,0,1,345.5,467.8Z"/><circle class="cls-6" cx="195.8" cy="465.2" r="10.2" transform="translate(-83.5 44.8) rotate(-10.8)"/><path class="cls-4" d="M188.4,468.1a6.4,6.4,0,1,1,7.5,5.1A6.4,6.4,0,0,1,188.4,468.1Z"/><circle class="cls-6" cx="87.9" cy="218.1" r="8.3"/><circle class="cls-6" cx="181.6" cy="367.7" r="9.4"/><circle class="cls-6" cx="345.2" cy="297.2" r="4.3"/><path class="cls-3" d="M300.5,450.7a4.5,4.5,0,1,1,4.5,4.5A4.5,4.5,0,0,1,300.5,450.7Z"/><circle class="cls-6" cx="73" cy="402.8" r="6.6"/><path class="cls-3" d="M134.2,282.5a7.3,7.3,0,1,1,7.3,7.3A7.4,7.4,0,0,1,134.2,282.5Z"/><circle class="cls-6" cx="191.8" cy="140.3" r="11.3"/><circle class="cls-6" cx="272.3" cy="295.7" r="7.5"/><circle class="cls-6" cx="230.1" cy="219.7" r="4.2"/><circle class="cls-6" cx="362.1" cy="392" r="3.8"/><circle class="cls-6" cx="89.2" cy="254.9" r="3.6"/><path class="cls-3" d="M276.2,240a44.7,44.7,0,1,1,51,37.2A44.7,44.7,0,0,1,276.2,240Z"/><path class="cls-4" d="M268.2,248.9a38.5,38.5,0,1,1,44,32.1A38.5,38.5,0,0,1,268.2,248.9Z"/><path class="cls-3" d="M486.4,396.4a55.8,55.8,0,1,1,13.1-77.9A55.9,55.9,0,0,1,486.4,396.4Z"/><path class="cls-4" d="M392.9,379.1a48.1,48.1,0,1,1,66-16.7A48.1,48.1,0,0,1,392.9,379.1Z"/><path class="cls-3" d="M109.8,158.2c-13-6-18.3-22.2-11.9-36.2S120,101.6,133,107.5s18.4,22.2,11.9,36.2S122.8,164.2,109.8,158.2Z"/><ellipse class="cls-1" cx="131.1" cy="130.6" rx="22.4" ry="20.8" transform="translate(-42.3 195.3) rotate(-65.4)"/><path class="cls-3" d="M238.1,91.4A19.2,19.2,0,1,1,231.5,65,19.2,19.2,0,0,1,238.1,91.4Z"/><path class="cls-5" d="M236.3,87.2a12.1,12.1,0,1,1-4.1-16.6A12.1,12.1,0,0,1,236.3,87.2Z"/><path class="cls-3" d="M348,32.9a30.1,30.1,0,0,0-6.5,7.7c-10.3,17.2-1.4,41.5,19.8,54.1s46.7,8.9,57-8.4a31.2,31.2,0,0,0,4.1-18.9c-3.1-2-7.3-4.8-10.5-6.7A279.8,279.8,0,0,0,348,32.9Z"/><path class="cls-4" d="M346.3,32.4a21.7,21.7,0,0,0-4.4,5.8c-6.8,12.8.4,29.9,16.2,38.3s34,4.7,40.7-8.1a22.5,22.5,0,0,0,2.3-13.7L394,50.7A208.9,208.9,0,0,0,346.3,32.4Z"/><path class="cls-4" d="M249.7,540a14.8,14.8,0,0,1-1.1-4.7c-0.6-9.2,8.1-17.2,19.4-18s20.9,6.1,21.5,15.3a14.8,14.8,0,0,1-2.2,8.7c-1.7.2-3.4,0.1-5.2,0.2C270.4,541.8,257.5,541.2,249.7,540Z"/><circle class="cls-6" cx="466.8" cy="272.6" r="7.5"/><circle class="cls-6" cx="451.8" cy="456.4" r="7.5"/><circle class="cls-6" cx="422.5" cy="123.5" r="7.5"/><path class="cls-3" d="M290.3,164.1a10.2,10.2,0,1,1,10.2,10.2A10.2,10.2,0,0,1,290.3,164.1Z"/><path class="cls-7" d="M334.9,535.5c-66,15.1-131.9,3.2-186.5-27.9,41.8-10.9,329.4-99.3,223.3-466.9,77.3,30.4,139,96.5,158.8,183.5,31.9,140-55.6,279.3-195.6,311.3"/></svg>