<svg id="Ebene_1" data-name="Ebene 1" xmlns="http://www.w3.org/2000/svg" viewBox="0 0 560 560"><defs><style>.cls-1{fill:#d2b47c;}.cls-2{fill:#c09a6d;}.cls-3{fill:#eccd94;}.cls-4,.cls-5{fill:#a37f54;}.cls-5{opacity:0.5;}</style></defs><title>Planet_gelb</title><path class="cls-1" d="M548.1,306.2C533.9,453,403.4,560.5,256.6,546.3S2.3,401.7,16.4,254.9,161.1,0.5,307.9,14.7,562.3,159.4,548.1,306.2Z"/><path class="cls-2" d="M386.9,526.3c86.9-37.1,151.5-119.4,161.2-220.1C562.3,159.4,454.7,28.9,307.9,14.7S30.6,108.1,16.4,254.9A266,266,0,0,0,33.3,377.3C33.4,377.4,181.7,533.8,386.9,526.3Z"/><path class="cls-3" d="M225.8,414.2C389.4,499.7,507,424.9,507,424.9a265.5,265.5,0,0,0,41.1-118.7C562.3,159.4,454.7,28.9,307.9,14.7S30.6,108.1,16.4,254.9q-0.9,9.9-1.1,19.7S125.6,361.9,225.8,414.2Z"/><path class="cls-2" d="M308.4,13.4C177,0.8,59.1,86.7,25.1,208.7c27.8,17.1,209.9,148,520,123.1C577,162.3,455.5,27.6,308.4,13.4Z"/><path class="cls-3" d="M76.7,110c0.1,0,13,99.4,256.7,80,152.6-12.2,183,27,211.3,40.5C523.1,116.9,428.8,26.4,307.9,14.7A266.8,266.8,0,0,0,76.7,110Z"/><path class="cls-1" d="M524.4,167.7C485.7,84.9,405.5,24.1,307.9,14.7A265.6,265.6,0,0,0,166.6,39.8h0s105,73.3,357.7,128h0Z"/><path class="cls-2" d="M191.5,29.3c54.8,33.3,142.5,70.3,295,79.3A267.2,267.2,0,0,0,191.5,29.3Z"/><path class="cls-4" d="M941.7,14c13.8-20.7-45.1-79.5-145.9-151.7l-1.1,3.7C886.3-67.5,938.8-14,926,5.1,905,36.7,714.3-35.7,497.8-158.5S125.2-405.6,146.2-437.2c12.8-19.2,86.7-1,192.4,44.4,1-.9,1.3-1.6,2.3-2.4-115.4-50.4-196.6-71.6-210.4-50.9-22,33,141.5,163.1,365.5,290.2S919.7,47.1,941.7,14Z"/><path class="cls-4" d="M998.4,46.3C1015.6,20.5,934-57.1,799-149.9l-1,4.1C922.5-59.3,996.6,12.1,980.6,36.1c-24,36-241.4-46.6-488.1-186.6S67.6-432.1,91.6-468.1c16-24.1,115.2,2.9,255.1,66.4,1.2-.9,1.1-1.3,2.3-2.2C198.3-473.1,90.9-504,73.7-478.3c-25.1,37.7,161.4,186,416.7,330.8S973.4,83.9,998.4,46.3Z"/><path class="cls-5" d="M343.6,541.1c-68,16-136,4.2-192.5-27.4,43-11.6,338.9-104.8,226.8-483.1C457.8,61.3,521.9,129,543,218.6c34,144.1-55.3,288.4-199.4,322.4"/></svg>