<svg id="Ebene_1" data-name="Ebene 1" xmlns="http://www.w3.org/2000/svg" xmlns:xlink="http://www.w3.org/1999/xlink" viewBox="0 0 560 560"><defs><style>.cls-1{fill:none;}.cls-2{clip-path:url(#clip-path);}.cls-3{clip-path:url(#clip-path-2);}.cls-4{fill:#008670;}.cls-5{fill:#49b49b;}.cls-6{fill:#a6d5cb;}.cls-7{fill:#95cfc1;}.cls-8{fill:#5bb09b;}.cls-9{fill:#7dbdb0;}.cls-10{fill:#83c8b8;}.cls-11{fill:#056b54;opacity:0.4;}</style><clipPath id="clip-path"><rect class="cls-1" x="22.2" y="23.2" width="521.7" height="521.46"/></clipPath><clipPath id="clip-path-2"><rect class="cls-1" x="22.2" y="23.2" width="521.7" height="521.46"/></clipPath></defs><title>Planet</title><g class="cls-2"><g class="cls-3"><path class="cls-4" d="M455.8,88.7C348-6.7,183.2,3.4,87.8,111.2s-85.3,272.6,22.5,368,272.6,85.3,368-22.5,85.3-272.6-22.5-368"/><path class="cls-5" d="M393,470.7c30.5-.7,59.2-54.1,53.8-99.5s-45.2-85.6-74.3-68.3-14.7,63.1-18.2,92.9-3.1,75.8,38.8,74.9"/><path class="cls-5" d="M236.4,337.8c49.8-9.5,69.5,28.7,37.2,106-17,40.6-4.6,76.2,16.6,100.7a259.8,259.8,0,0,1-180-65.3C32.1,410.1,5.3,304.5,32.7,210.6c16.2,18.5,41.7,24.2,61.8,22.9,35.7-2.2,66.3,14.1,61.3,63.2-4.5,43.6,24.1,57.3,69.6,43.6"/><path class="cls-6" d="M407.5,423.9a11.6,11.6,0,0,1-9.8,3.2c-18.6-2.5-28.9-79.2-8.9-97.5a14.4,14.4,0,0,1,6.5-3.5c24.9-5.9,31.9,79.8,12.2,97.9"/><path class="cls-5" d="M516.3,400.3c-20.7-11.9-38.4-40.7-42-76.4-9.4-91.9-53.6-117.3-71.2-125-25.1-11-52-7.9-65.5-5.2-119.6,24.1-142.6-20.1-129.4-96.2a203.7,203.7,0,0,1,26.2-69.7A260.2,260.2,0,0,1,455.7,88.7c90.4,79.9,112.1,208.6,60.6,311.6"/><path class="cls-7" d="M537.7,339.4c-8.1-6.6-20.7-23.7-30.4-67.5-15.1-68.6-70.4-160-141.8-147.2S247.9,88.5,288,43.1l2.7-2.9a80.2,80.2,0,0,1,21-15.4A259.4,259.4,0,0,1,453,86.3l0.2,0.2h0l0.5,0.4h0l0.2,0.2h0l0.5,0.4h0.1l0.2,0.2h0.1l0.4,0.4h0.3l0.2,0.2,0.2,0.2h0l0.2,0.2h0l0.2,0.2h0l0.2,0.2h0l0.2,0.2h0l0.2,0.2h0l0.2,0.2h0l0.2,0.2h0l0.2,0.2h0l0.2,0.2h0l0.2,0.2h0l0.2,0.2h0l0.2,0.2h0l0.2,0.2h0l0.2,0.2h0l0.2,0.2h0l0.2,0.2h0l0.2,0.2h0l0.2,0.2h0l0.2,0.2h0l0.4,0.4h0l0.2,0.2h0l0.4,0.4h0l0.6,0.6h0l0.4,0.4a260.6,260.6,0,0,1,75.7,245"/><path class="cls-8" d="M301.9,262.5c-3.8,11.3-13.8,22.5-25.2,30.3-31.4,21.7-73.9,23.9-83.7-.4-1.9-4.6-1.5-10.3.5-16.5,8.8-26.4,49.4-60.9,84.3-49.2,23.8,8,28.7,21.9,24,35.8M220,269.4"/><path class="cls-9" d="M282.9,265.5c-4.9,14.8-33.3,33.8-55.9,22.2-8.2-4.2-9-12.5-7-18.4,5.3-15.9,39.4-34.8,59.1-19.8,4.5,3.4,5.4,10.9,3.7,15.9"/><path class="cls-5" d="M163.7,74.7c-14.2-4.4-33.1,16.3-35.3,38.6s12,47.4,27.3,43.7,14.9-26.4,18.1-41,9.4-35.2-10.2-41.3"/><path class="cls-6" d="M156.9,127a14.5,14.5,0,0,1-3.7,3c-12,6.7-15-19.1-6-29.4a11.8,11.8,0,0,1,5.3-3.5c8.9-2.8,13.5,19.6,4.4,29.9"/></g></g><path class="cls-10" d="M62.5,316.2c65.7,26.8,46.3,97.8,68.2,121.6s87.8-19.4,87.3,36.2c-0.3,32.4-2.2,63.6,30.7,68.6-40.4-6.1-87.5-19.4-138.4-63.5C62.5,437.7,32.5,378.9,24.8,318.9,24.8,318.9,38.5,306.4,62.5,316.2Z"/><path class="cls-11" d="M342.2,537.8c-66.3,15.6-132.6,4.1-187.7-26.7,41.9-11.3,330.4-102.2,221.1-470.9,77.9,30,140.4,96,161,183.3,33.1,140.5-53.9,281.2-194.4,314.3"/></svg>