<?xml version="1.0" encoding="utf-8"?>
<!-- Generator: Adobe Illustrator 16.0.0, SVG Export Plug-In . SVG Version: 6.00 Build 0)  -->
<!DOCTYPE svg PUBLIC "-//W3C//DTD SVG 1.1//EN" "http://www.w3.org/Graphics/SVG/1.1/DTD/svg11.dtd">
<svg version="1.1" id="Capa_1" xmlns="http://www.w3.org/2000/svg" xmlns:xlink="http://www.w3.org/1999/xlink" x="0px" y="0px"
	 width="32px" height="32px" viewBox="0 0 32 32" enable-background="new 0 0 32 32" xml:space="preserve">
<circle fill="#67DDE0" cx="5.014" cy="26.985" r="1"/>
<rect x="9.473" y="13.024" transform="matrix(0.7071 -0.7072 0.7072 0.7071 -6.6525 15.9906)" fill="#BFBFBF" width="13.001" height="6"/>
<rect x="20.131" y="7.368" transform="matrix(0.7073 -0.7069 0.7069 0.7073 -0.9972 18.3271)" fill="#AAAAAA" width="3" height="5.999"/>
<path fill="#BFBFBF" d="M7.842,19.914c0,0-2.121-0.707-4.242,1.414l7.071,7.071c2.121-2.121,1.414-4.242,1.414-4.242L7.842,19.914z"
	/>
<rect x="4.963" y="3.893" transform="matrix(-0.7071 -0.7071 0.7071 -0.7071 11.4281 20.5188)" fill="#AAAAAA" width="10" height="7.999"/>
<rect x="19.106" y="18.035" transform="matrix(-0.7071 -0.7071 0.7071 -0.7071 25.5698 54.6627)" fill="#AAAAAA" width="10.001" height="8"/>
<circle fill="#67DDE0" cx="5.014" cy="26.985" r="1"/>
<rect x="14.035" y="6.964" transform="matrix(-0.7072 -0.707 0.707 -0.7072 18.501 37.5913)" fill="none" stroke="#4D5152" stroke-miterlimit="10" width="6" height="16.001"/>
<line fill="none" stroke="#4D5152" stroke-miterlimit="10" x1="18.449" y1="9.307" x2="22.691" y2="13.549"/>
<path fill="none" stroke="#4D5152" stroke-miterlimit="10" d="M7.842,19.914c0,0-2.121-0.707-4.242,1.414l7.071,7.071
	c2.121-2.121,1.414-4.242,1.414-4.242L7.842,19.914z"/>
<rect x="4.963" y="3.893" transform="matrix(-0.7071 -0.7071 0.7071 -0.7071 11.4281 20.5188)" fill="none" stroke="#4D5152" stroke-miterlimit="10" width="10" height="7.999"/>
<rect x="19.106" y="18.035" transform="matrix(-0.7071 -0.7071 0.7071 -0.7071 25.5698 54.6627)" fill="none" stroke="#4D5152" stroke-miterlimit="10" width="10.001" height="8"/>
<line fill="none" stroke="#4D5152" stroke-miterlimit="10" x1="12.792" y1="5.065" x2="7.135" y2="10.721"/>
<line fill="none" stroke="#4D5152" stroke-miterlimit="10" x1="26.935" y1="19.207" x2="21.277" y2="24.864"/>
<line fill="none" stroke="#4D5152" stroke-miterlimit="10" x1="6.428" y1="4.357" x2="14.914" y2="12.842"/>
<line fill="none" stroke="#4D5152" stroke-miterlimit="10" x1="19.156" y1="17.085" x2="27.643" y2="25.571"/>
<line fill="none" stroke="#4D5152" stroke-miterlimit="10" x1="9.61" y1="22.39" x2="11.732" y2="20.268"/>
<line fill="none" stroke="#4D5152" stroke-miterlimit="10" x1="5.368" y1="26.632" x2="7.489" y2="24.511"/>
<circle fill="none" stroke="#4D5152" stroke-miterlimit="10" cx="5.014" cy="26.985" r="1"/>
<path fill="none" stroke="#67DDE0" stroke-miterlimit="10" d="M2.893,24.864c-1.17,1.172-1.172,3.07,0,4.242
	c1.172,1.172,3.073,1.172,4.243,0"/>
</svg>
