<?xml version="1.0" encoding="utf-8"?>
<!-- Generator: Adobe Illustrator 16.0.0, SVG Export Plug-In . SVG Version: 6.00 Build 0)  -->
<!DOCTYPE svg PUBLIC "-//W3C//DTD SVG 1.1//EN" "http://www.w3.org/Graphics/SVG/1.1/DTD/svg11.dtd">
<svg version="1.1" id="Capa_1" xmlns="http://www.w3.org/2000/svg" xmlns:xlink="http://www.w3.org/1999/xlink" x="0px" y="0px"
	 width="32px" height="32px" viewBox="0 0 32 32" enable-background="new 0 0 32 32" xml:space="preserve">
<circle fill="none" stroke="#67DDE0" stroke-miterlimit="10" cx="11" cy="9" r="4.5"/>
<circle fill="none" stroke="#ACF0F2" stroke-miterlimit="10" cx="11" cy="9" r="6.5"/>
<circle fill="none" stroke="#67DDE0" stroke-miterlimit="10" cx="11" cy="9" r="8.5"/>
<path fill="#FFFFFF" d="M5.5,21.492L23.493,3.5c0,0,7.611,7.612-1.385,16.607C13.111,29.104,5.5,21.492,5.5,21.492z"/>
<circle fill="#67DDE0" cx="11.035" cy="9.037" r="1.957"/>
<polyline fill="#BFBFBF" points="20.5,21.5 20.5,25.5 24.5,22.5 24.5,17 "/>
<polygon fill="#BFBFBF" points="16.5,30.5 16.5,28.5 28.5,19.5 30.5,19.5 26.5,27.5 "/>
<g>
	<path fill="none" stroke="#4D5152" stroke-miterlimit="10" d="M5.5,21.492L23.493,3.5c0,0,7.611,7.612-1.385,16.607
		C13.111,29.104,5.5,21.492,5.5,21.492z"/>
	<line fill="none" stroke="#4D5152" stroke-miterlimit="10" x1="7.94" y1="23.204" x2="25.205" y2="5.94"/>
	<line fill="none" stroke="#4D5152" stroke-miterlimit="10" x1="14.149" y1="12.15" x2="12.073" y2="10.075"/>
	<circle fill="none" stroke="#4D5152" stroke-miterlimit="10" cx="11.035" cy="9.037" r="1.957"/>
</g>
<polyline fill="none" stroke="#4D5152" stroke-miterlimit="10" points="20.5,21.5 20.5,25.5 24.5,22.5 24.5,17 "/>
<polygon fill="none" stroke="#4D5152" stroke-miterlimit="10" points="16.5,30.5 16.5,28.5 28.5,19.5 30.5,19.5 26.5,27.5 "/>
</svg>
