<?xml version="1.0" encoding="utf-8"?>
<!-- Generator: Adobe Illustrator 16.0.0, SVG Export Plug-In . SVG Version: 6.00 Build 0)  -->
<!DOCTYPE svg PUBLIC "-//W3C//DTD SVG 1.1//EN" "http://www.w3.org/Graphics/SVG/1.1/DTD/svg11.dtd">
<svg version="1.1" id="Capa_1" xmlns="http://www.w3.org/2000/svg" xmlns:xlink="http://www.w3.org/1999/xlink" x="0px" y="0px"
	 width="32px" height="32px" viewBox="0 0 32 32" enable-background="new 0 0 32 32" xml:space="preserve">
<path fill="#FFFFFF" d="M12.5,29.5l-10-1c0,0-1,0-1-1s8-4,8-4"/>
<path fill="#FFFFFF" d="M18.5,29.5l10-1c0,0,1,0,1-1s-8-4-8-4"/>
<line fill="none" stroke="#4D5152" stroke-miterlimit="10" x1="2.5" y1="26.5" x2="10.5" y2="27.5"/>
<line fill="none" stroke="#4D5152" stroke-miterlimit="10" x1="20.5" y1="27.5" x2="28.5" y2="26.5"/>
<path fill="none" stroke="#4D5152" stroke-miterlimit="10" d="M12.5,29.5l-10-1c0,0-1,0-1-1s8-4,8-4"/>
<path fill="none" stroke="#4D5152" stroke-miterlimit="10" d="M18.5,29.5l10-1c0,0,1,0,1-1s-8-4-8-4"/>
<circle fill="#FFFFFF" cx="15.5" cy="13.5" r="10"/>
<circle fill="#F27C7C" stroke="#FFFFFF" stroke-miterlimit="10" cx="15.5" cy="13.5" r="8"/>
<circle fill="#AAAAAA" cx="15.5" cy="13.5" r="4"/>
<path fill="#FFFFFF" d="M21.5,24.5c0,2-2,5-3,5s-5,0-6,0s-3-3-3-5s2-8,3-8h6C19.5,16.5,21.5,22.5,21.5,24.5z"/>
<path fill="#AAAAAA" d="M21.5,23.5l-3,3c0,0-1-2-3-2s-3,2-3,2l-3-3c0,0,0.25,6,3.375,6s5.625,0,5.625,0S21.771,27.937,21.5,23.5z"/>
<polygon fill="#FFFFFF" points="13.5,16.5 17.5,16.5 16.5,11.5 14.5,11.5 "/>
<path fill="none" stroke="#4D5152" stroke-miterlimit="10" d="M21.5,24.5c0,2-2,5-3,5s-5,0-6,0s-3-3-3-5s2-8,3-8h6
	C19.5,16.5,21.5,22.5,21.5,24.5z"/>
<path fill="#4D5152" d="M11.5,20.5c0,0,0-1,1-1h6c0,0,1,0,1,1s-1,1-1,1h-6C12.5,21.5,11.5,21.5,11.5,20.5z"/>
<polygon fill="none" stroke="#4D5152" stroke-miterlimit="10" points="13.5,16.5 17.5,16.5 16.5,11.5 14.5,11.5 "/>
<path fill="none" stroke="#4D5152" stroke-linejoin="round" stroke-miterlimit="10" d="M21.09,21.793
	c2.66-1.797,4.41-4.841,4.41-8.293c0-5.523-4.478-10-10-10c-5.523,0-10,4.477-10,10c0,3.415,1.711,6.429,4.322,8.233"/>
<path fill="none" stroke="#4D5152" stroke-linejoin="round" stroke-miterlimit="10" d="M20.531,19.721
	c1.812-1.467,2.969-3.708,2.969-6.221c0-4.418-3.582-8-8-8c-4.418,0-8,3.582-8,8c0,2.486,1.133,4.707,2.911,6.174"/>
<path fill="none" stroke="#4D5152" stroke-linejoin="round" stroke-miterlimit="10" d="M18.266,16.389
	c0.761-0.728,1.234-1.752,1.234-2.889c0-2.209-1.791-4-4-4c-2.209,0-4,1.791-4,4c0,1.105,0.448,2.105,1.172,2.829"/>
<path fill="none" stroke="#4D5152" stroke-linejoin="round" stroke-miterlimit="10" d="M21.5,23.5l-3,3c0,0-1-2-3-2s-3,2-3,2l-3-3"
	/>
</svg>
