<?xml version="1.0" encoding="utf-8"?>
<!-- Generator: Adobe Illustrator 16.0.0, SVG Export Plug-In . SVG Version: 6.00 Build 0)  -->
<!DOCTYPE svg PUBLIC "-//W3C//DTD SVG 1.1//EN" "http://www.w3.org/Graphics/SVG/1.1/DTD/svg11.dtd">
<svg version="1.1" id="Capa_1" xmlns="http://www.w3.org/2000/svg" xmlns:xlink="http://www.w3.org/1999/xlink" x="0px" y="0px"
	 width="32px" height="32px" viewBox="0 0 32 32" enable-background="new 0 0 32 32" xml:space="preserve">
<path fill="#BFBFBF" d="M26.5,15.5c0,0,0,4,0,6s-8.5,3-10.5,3s-10.5-1-10.5-3s0-6,0-6"/>
<path fill="#BFBFBF" d="M21.75,5.7C20.65,6.5,18.7,7.5,16,7.5c-2.71,0-4.65-0.99-5.76-1.8c0.74-0.77,1.26-1.2,1.26-1.2h9
	C20.5,4.5,21.02,4.93,21.75,5.7z"/>
<path fill="#FFFFFF" d="M26.5,15.5c0,0-3.5,3-10.5,3s-10.5-3-10.5-3c0-4.23,2.99-7.97,4.74-9.8c1.11,0.81,3.05,1.8,5.76,1.8
	c2.7,0,4.65-1,5.75-1.8C23.51,7.53,26.5,11.27,26.5,15.5z"/>
<rect x="9.5" y="11.5" fill="#ACF0F2" width="13" height="4"/>
<path fill="none" stroke="#4D5152" stroke-miterlimit="10" d="M26.5,15.5c0,0-3.5,3-10.5,3s-10.5-3-10.5-3c0-6,6-11,6-11h9
	C20.5,4.5,26.5,9.5,26.5,15.5z"/>
<path fill="none" stroke="#4D5152" stroke-miterlimit="10" d="M26.5,15.5c0,0,0,4,0,6s-8.5,3-10.5,3s-10.5-1-10.5-3s0-6,0-6"/>
<rect x="9.5" y="11.5" fill="none" stroke="#4D5152" stroke-miterlimit="10" width="13" height="4"/>
<path fill="none" stroke="#4D5152" stroke-miterlimit="10" d="M10.355,5.812C11.461,6.619,13.29,7.5,16,7.5
	c2.699,0,4.524-0.874,5.632-1.679"/>
<path fill="#FFFFFF" d="M18.5,22.5v6h-5v-6c0,0,0-2,2.5-2S18.5,22.5,18.5,22.5z"/>
<path fill="#FFFFFF" d="M8.5,20.5v6h-5v-6c0,0,0-2,2.5-2S8.5,20.5,8.5,20.5z"/>
<path fill="#FFFFFF" d="M28.5,20.5v6h-5v-6c0,0,0-2,2.5-2S28.5,20.5,28.5,20.5z"/>
<rect x="3.5" y="24.5" fill="#AAAAAA" width="5" height="2"/>
<rect x="13.5" y="26.5" fill="#AAAAAA" width="5" height="2"/>
<rect x="23.5" y="24.5" fill="#AAAAAA" width="5" height="2"/>
<path fill="none" stroke="#4D5152" stroke-miterlimit="10" d="M18.5,28.5v-6c0,0,0-2-2.5-2s-2.5,2-2.5,2v6H18.5z"/>
<path fill="none" stroke="#4D5152" stroke-miterlimit="10" d="M8.5,26.5v-6c0,0,0-2-2.5-2s-2.5,2-2.5,2v6H8.5z"/>
<path fill="none" stroke="#4D5152" stroke-miterlimit="10" d="M28.5,26.5v-6c0,0,0-2-2.5-2s-2.5,2-2.5,2v6H28.5z"/>
<line fill="none" stroke="#4D5152" stroke-miterlimit="10" x1="4" y1="24.5" x2="8" y2="24.5"/>
<line fill="none" stroke="#4D5152" stroke-miterlimit="10" x1="14" y1="26.5" x2="18" y2="26.5"/>
<line fill="none" stroke="#4D5152" stroke-miterlimit="10" x1="24" y1="24.5" x2="28" y2="24.5"/>
</svg>
