<?xml version="1.0" encoding="utf-8"?>
<!-- Generator: Adobe Illustrator 16.0.0, SVG Export Plug-In . SVG Version: 6.00 Build 0)  -->
<!DOCTYPE svg PUBLIC "-//W3C//DTD SVG 1.1//EN" "http://www.w3.org/Graphics/SVG/1.1/DTD/svg11.dtd">
<svg version="1.1" id="Capa_1" xmlns="http://www.w3.org/2000/svg" xmlns:xlink="http://www.w3.org/1999/xlink" x="0px" y="0px"
	 width="32px" height="32px" viewBox="0 0 32 32" enable-background="new 0 0 32 32" xml:space="preserve">
<path fill="#FFFFFF" d="M26.63,19.5c0,1,0,1,0,3H19.5v-14C20.5,13.5,26.63,18.5,26.63,19.5z"/>
<path fill="#FFFFFF" d="M12.5,8.5v14h-7c0-2,0-2,0-3S11.5,13.5,12.5,8.5z"/>
<path fill="#BFBFBF" d="M12.5,22.5v1.82l-1,1.13v1.05c0,0-6-2-6-4H12.5z"/>
<path fill="#BFBFBF" d="M26.63,22.5c0,2-6,4-6,4v-1.05L19.5,24.5v-2H26.63z"/>
<path fill="#FFFFFF" d="M19.5,6.5v18h-7v-18c0-2,1.5-5,3.5-5S19.5,4.5,19.5,6.5z"/>
<path fill="#AAAAAA" d="M12.5,24.5l-1,1v4c0,0,2,0,5,0s4,0,4,0v-4l-1-1H12.5z"/>
<line fill="none" stroke="#4D5152" stroke-miterlimit="10" x1="14.5" y1="26" x2="14.5" y2="31"/>
<line fill="none" stroke="#4D5152" stroke-miterlimit="10" x1="17.5" y1="26" x2="17.5" y2="31"/>
<line fill="none" stroke="#4D5152" stroke-miterlimit="10" x1="6" y1="22.5" x2="12" y2="22.5"/>
<line fill="none" stroke="#4D5152" stroke-miterlimit="10" x1="20" y1="22.5" x2="26" y2="22.5"/>
<path fill="#AAAAAA" d="M18.387,2.856C17.892,3.398,17.096,4,16,4c-1.035,0-1.803-0.536-2.302-1.052c0,0,0.635-1.448,2.302-1.448
	S18.387,2.856,18.387,2.856z"/>
<path fill="#4D5152" d="M18,7v1h-4V7c0,0,0-1,1-1h2C17,6,18,6,18,7z"/>
<path fill="none" stroke="#4D5152" stroke-miterlimit="10" d="M19.5,6.5v18h-7v-18c0-2,1.5-5,3.5-5S19.5,4.5,19.5,6.5z"/>
<path fill="none" stroke="#4D5152" stroke-miterlimit="10" d="M12.5,24.5l-1,1v4c0,0,2,0,5,0s4,0,4,0v-4l-1-1H12.5z"/>
<path fill="none" stroke="#4D5152" stroke-miterlimit="10" d="M12.5,8.5c-1,5-7,10-7,11s0,1,0,3s6,4,6,4"/>
<path fill="none" stroke="#4D5152" stroke-miterlimit="10" d="M20.5,26.5c0,0,6-2,6-4s0-2,0-3s-6-6-7-11"/>
<line fill="none" stroke="#4D5152" stroke-miterlimit="10" x1="14.5" y1="26" x2="14.5" y2="31"/>
<line fill="none" stroke="#4D5152" stroke-miterlimit="10" x1="17.5" y1="26" x2="17.5" y2="31"/>
<line fill="none" stroke="#4D5152" stroke-miterlimit="10" x1="6" y1="22.5" x2="12" y2="22.5"/>
<line fill="none" stroke="#4D5152" stroke-miterlimit="10" x1="20" y1="22.5" x2="26" y2="22.5"/>
<path fill="#4D5152" d="M18,7v1h-4V7c0,0,0-1,1-1h2C17,6,18,6,18,7z"/>
<path fill="none" stroke="#4D5152" stroke-miterlimit="10" d="M13.698,2.948C14.197,3.464,14.965,4,16,4
	c1.096,0,1.892-0.602,2.387-1.144"/>
<line fill="none" stroke="#4D5152" stroke-miterlimit="10" x1="13" y1="20.5" x2="19" y2="20.5"/>
</svg>
