<?xml version="1.0" ?><!DOCTYPE svg  PUBLIC '-//W3C//DTD SVG 1.1//EN'  'http://www.w3.org/Graphics/SVG/1.1/DTD/svg11.dtd'><svg fill="#492814" enable-background="new 0 0 24 24" height="24px" id="Layer_1" version="1.1" viewBox="0 0 24 24" width="24px" xml:space="preserve" xmlns="http://www.w3.org/2000/svg" xmlns:xlink="http://www.w3.org/1999/xlink"><g><path d="M23,0H1C0.4,0,0,0.4,0,1v9.5c0,0,2,2.5,6,2.5c3,0,6-2,6-2s3-2,6-2s6,2,6,2V1C24,0.4,23.6,0,23,0z M22,8c0,0-2-1-4-1   c-3,0-6,2-6,2s-3,2-6,2S2,9.5,2,9.5V2h20V8z"/><path d="M18,11c-3,0-6,2-6,2s-3,2-6,2s-6-2-6-2v10c0,0.6,0.4,1,1,1h22c0.6,0,1-0.4,1-1v-9.4C24,13.6,22,11,18,11z M22,22H2v-6   c0,0,2,1,4,1c3,0,6-2,6-2s3-2,6-2s4,1.5,4,1.5V22z"/></g></svg>