<?xml version="1.0" ?><!DOCTYPE svg  PUBLIC '-//W3C//DTD SVG 1.1//EN'  'http://www.w3.org/Graphics/SVG/1.1/DTD/svg11.dtd'><svg fill="#492814" enable-background="new 0 0 24 24" height="24px" id="Layer_1" version="1.1" viewBox="0 0 24 24" width="24px" xml:space="preserve" xmlns="http://www.w3.org/2000/svg" xmlns:xlink="http://www.w3.org/1999/xlink"><g><path d="M0,1v14l9,9h14c0.6,0,1-0.4,1-1V1c0-0.6-0.4-1-1-1H1C0.4,0,0,0.4,0,1z M2.5,15H9v6.5L2.5,15z M22,2v20H10v-7   c0-0.6-0.4-1-1-1H2V2H22z"/><polygon points="18,12 18,6 12,6 14.1,8.3 11.3,11.2 12.8,12.8 15.7,9.9  "/></g></svg>