<?xml version="1.0" ?><!DOCTYPE svg  PUBLIC '-//W3C//DTD SVG 1.1//EN'  'http://www.w3.org/Graphics/SVG/1.1/DTD/svg11.dtd'><svg fill="#492814" enable-background="new 0 0 24 24" height="24px" id="Layer_1" version="1.1" viewBox="0 0 24 24" width="24px" xml:space="preserve" xmlns="http://www.w3.org/2000/svg" xmlns:xlink="http://www.w3.org/1999/xlink"><g><path d="M7,2.1C7,1.5,6.5,1,5.9,1H1.1C0.5,1,0,1.5,0,2.1v4.8C0,7.5,0.5,8,1.1,8h4.8C6.5,8,7,7.5,7,6.9V2.1z M5,6H2V3h3V6z"/><path d="M24,2.1C24,1.5,23.5,1,22.9,1H9.1C8.5,1,8,1.5,8,2.1v0.8C8,3.5,8.5,4,9.1,4h13.8C23.5,4,24,3.5,24,2.9V2.1z M23,3H9V2h14V3   z"/><path d="M24,6.1C24,5.5,23.5,5,22.9,5H9.1C8.5,5,8,5.5,8,6.1v0.8C8,7.5,8.5,8,9.1,8h13.8C23.5,8,24,7.5,24,6.9V6.1z M23,7H9V6h14V7   z"/><path d="M24,10.1C24,9.5,23.5,9,22.9,9H9.1C8.5,9,8,9.5,8,10.1v0.8C8,11.5,8.5,12,9.1,12h13.8c0.6,0,1.1-0.5,1.1-1.1V10.1z M23,11   H9v-1h14V11z"/><path d="M24,14.1c0-0.6-0.5-1.1-1.1-1.1H9.1C8.5,13,8,13.5,8,14.1v0.8C8,15.5,8.5,16,9.1,16h13.8c0.6,0,1.1-0.5,1.1-1.1V14.1z    M23,15H9v-1h14V15z"/><path d="M24,18.1c0-0.6-0.5-1.1-1.1-1.1H9.1C8.5,17,8,17.5,8,18.1v0.8C8,19.5,8.5,20,9.1,20h13.8c0.6,0,1.1-0.5,1.1-1.1V18.1z    M23,19H9v-1h14V19z"/><path d="M24,22.1c0-0.6-0.5-1.1-1.1-1.1H9.1C8.5,21,8,21.5,8,22.1v0.8C8,23.5,8.5,24,9.1,24h13.8c0.6,0,1.1-0.5,1.1-1.1V22.1z    M23,23H9v-1h14V23z"/><path d="M7,10.1C7,9.5,6.5,9,5.9,9H1.1C0.5,9,0,9.5,0,10.1v4.8C0,15.5,0.5,16,1.1,16h4.8C6.5,16,7,15.5,7,14.9V10.1z M5,14H2v-3h3   V14z"/><path d="M7,18.1C7,17.5,6.5,17,5.9,17H1.1C0.5,17,0,17.5,0,18.1v4.8C0,23.5,0.5,24,1.1,24h4.8C6.5,24,7,23.5,7,22.9V18.1z M5,22H2   v-3h3V22z"/></g></svg>