<?xml version="1.0" ?><!DOCTYPE svg  PUBLIC '-//W3C//DTD SVG 1.1//EN'  'http://www.w3.org/Graphics/SVG/1.1/DTD/svg11.dtd'><svg fill="#492814" enable-background="new 0 0 24 24" height="24px" id="Layer_1" version="1.1" viewBox="0 0 24 24" width="24px" xml:space="preserve" xmlns="http://www.w3.org/2000/svg" xmlns:xlink="http://www.w3.org/1999/xlink"><g><path d="M15,15c1.7,0,3-1.3,3-3s-1.3-3-3-3s-3,1.3-3,3S13.3,15,15,15z M15,10c1.1,0,2,0.9,2,2s-0.9,2-2,2s-2-0.9-2-2S13.9,10,15,10   z"/><path d="M22.9,0H1.1C0.5,0,0,0.5,0,1.1v21.8C0,23.5,0.5,24,1.1,24h21.8c0.6,0,1.1-0.5,1.1-1.1V1.1C24,0.5,23.5,0,22.9,0z M2,22   v-2.2l5-5l5.5,5.5l2.5-2.6l4.5,4.4H2z M22,22h-1l-6-5.9l-2.5,2.6L7,13.3l-5,5V7h20V22z M22,6H2V2h20V6z"/><circle cx="4" cy="4" r="1"/><circle cx="7" cy="4" r="1"/><circle cx="10" cy="4" r="1"/></g></svg>